<?xml version="1.0" encoding="UTF-8" standalone="no"?>
<!DOCTYPE svg PUBLIC "-//W3C//DTD SVG 1.1//EN" "http://www.w3.org/Graphics/SVG/1.1/DTD/svg11.dtd">
<svg width="491.38965" height="402.64557" xmlns="http://www.w3.org/2000/svg" xmlns:xlink="http://www.w3.org/1999/xlink">
<defs id="defs4">
<marker style="overflow:visible" id="Arrow1Mstart" refX="0" refY="0" orient="auto">
<path transform="matrix(0.4,0,0,0.4,4,0)" style="stroke:#000;stroke-width:1pt;marker-start:none" d="M 0,0 L 5,-5 L -12.5,0 L 5,5 L 0,0 z"/></marker>
<marker style="overflow:visible" id="Arrow2Mstart" refX="0" refY="0" orient="auto">
<path transform="scale(0.6,0.6)" d="M 8.7185878,4.0337352 L -2.2072895,0.016013256 L 8.7185884,-4.0017078 C 6.97309,-1.6296469 6.9831476,1.6157441 8.7185878,4.0337352 z" style="stroke-width:0.625;stroke-linejoin:round"/></marker>
<marker style="overflow:visible" id="Arrow2MstartF" refX="0" refY="0" orient="auto">
<path transform="scale(0.6,0.6)" d="M 8.7185878,4.0337352 L -2.2072895,0.016013256 L 8.7185884,-4.0017078 C 6.97309,-1.6296469 6.9831476,1.6157441 8.7185878,4.0337352 z" style="fill:#ff0000;stroke:#ff0000;stroke-width:0.625;stroke-linejoin:round"/></marker>
<marker style="overflow:visible" id="Arrow2MstartW" refX="0" refY="0" orient="auto">
<path transform="scale(0.6,0.6)" d="M 8.7185878,4.0337352 L -2.2072895,0.016013256 L 8.7185884,-4.0017078 C 6.97309,-1.6296469 6.9831476,1.6157441 8.7185878,4.0337352 z" style="fill:#ff0000;stroke:#ff0000;stroke-width:0.625;stroke-linejoin:round"/></marker>
<marker style="overflow:visible" id="Arrow2Mstartw" refX="0" refY="0" orient="auto">
<path transform="scale(0.6,0.6)" d="M 8.7185878,4.0337352 L -2.2072895,0.016013256 L 8.7185884,-4.0017078 C 6.97309,-1.6296469 6.9831476,1.6157441 8.7185878,4.0337352 z" style="fill:#ff0000;stroke:#ff0000;stroke-width:0.625;stroke-linejoin:round"/></marker>
<marker style="overflow:visible" id="Arrow2Mstart0" refX="0" refY="0" orient="auto">
<path transform="scale(0.6,0.6)" d="M 8.7185878,4.0337352 L -2.2072895,0.016013256 L 8.7185884,-4.0017078 C 6.97309,-1.6296469 6.9831476,1.6157441 8.7185878,4.0337352 z" style="fill:#ff0000;stroke:#ff0000;stroke-width:0.625;stroke-linejoin:round"/></marker>
<marker style="overflow:visible" id="Arrow2Mstartu" refX="0" refY="0" orient="auto">
<path transform="scale(0.6,0.6)" d="M 8.7185878,4.0337352 L -2.2072895,0.016013256 L 8.7185884,-4.0017078 C 6.97309,-1.6296469 6.9831476,1.6157441 8.7185878,4.0337352 z" style="fill:#ff0000;stroke:#ff0000;stroke-width:0.625;stroke-linejoin:round"/></marker>
<marker style="overflow:visible" id="Arrow2MstartG" refX="0" refY="0" orient="auto">
<path transform="scale(0.6,0.6)" d="M 8.7185878,4.0337352 L -2.2072895,0.016013256 L 8.7185884,-4.0017078 C 6.97309,-1.6296469 6.9831476,1.6157441 8.7185878,4.0337352 z" style="fill:#ff0000;stroke:#ff0000;stroke-width:0.625;stroke-linejoin:round"/></marker>
<marker style="overflow:visible" id="Arrow2MstartU" refX="0" refY="0" orient="auto">
<path transform="scale(0.6,0.6)" d="M 8.7185878,4.0337352 L -2.2072895,0.016013256 L 8.7185884,-4.0017078 C 6.97309,-1.6296469 6.9831476,1.6157441 8.7185878,4.0337352 z" style="fill:#ff0000;stroke:#ff0000;stroke-width:0.625;stroke-linejoin:round"/></marker>
<marker style="overflow:visible" id="Arrow2Mstart4" refX="0" refY="0" orient="auto">
<path transform="scale(0.6,0.6)" d="M 8.7185878,4.0337352 L -2.2072895,0.016013256 L 8.7185884,-4.0017078 C 6.97309,-1.6296469 6.9831476,1.6157441 8.7185878,4.0337352 z" style="fill:#ff0000;stroke:#ff0000;stroke-width:0.625;stroke-linejoin:round"/></marker>
<marker style="overflow:visible" id="Arrow2MstartGd" refX="0" refY="0" orient="auto">
<path transform="scale(0.6,0.6)" d="M 8.7185878,4.0337352 L -2.2072895,0.016013256 L 8.7185884,-4.0017078 C 6.97309,-1.6296469 6.9831476,1.6157441 8.7185878,4.0337352 z" style="fill:#ff0000;stroke:#ff0000;stroke-width:0.625;stroke-linejoin:round"/></marker>
<marker style="overflow:visible" id="Arrow2Mstarth" refX="0" refY="0" orient="auto">
<path transform="scale(0.6,0.6)" d="M 8.7185878,4.0337352 L -2.2072895,0.016013256 L 8.7185884,-4.0017078 C 6.97309,-1.6296469 6.9831476,1.6157441 8.7185878,4.0337352 z" style="fill:#ff0000;stroke:#ff0000;stroke-width:0.625;stroke-linejoin:round"/></marker>
<marker style="overflow:visible" id="Arrow2MstartGT" refX="0" refY="0" orient="auto">
<path transform="scale(0.6,0.6)" d="M 8.7185878,4.0337352 L -2.2072895,0.016013256 L 8.7185884,-4.0017078 C 6.97309,-1.6296469 6.9831476,1.6157441 8.7185878,4.0337352 z" style="fill:#ff0000;stroke:#ff0000;stroke-width:0.625;stroke-linejoin:round"/></marker>
<marker style="overflow:visible" id="Arrow2Mstart9" refX="0" refY="0" orient="auto">
<path transform="scale(0.6,0.6)" d="M 8.7185878,4.0337352 L -2.2072895,0.016013256 L 8.7185884,-4.0017078 C 6.97309,-1.6296469 6.9831476,1.6157441 8.7185878,4.0337352 z" style="fill:#ff0000;stroke:#ff0000;stroke-width:0.625;stroke-linejoin:round"/></marker>
<marker style="overflow:visible" id="Arrow2MstartL" refX="0" refY="0" orient="auto">
<path transform="scale(0.6,0.6)" d="M 8.7185878,4.0337352 L -2.2072895,0.016013256 L 8.7185884,-4.0017078 C 6.97309,-1.6296469 6.9831476,1.6157441 8.7185878,4.0337352 z" style="fill:#ff0000;stroke:#ff0000;stroke-width:0.625;stroke-linejoin:round"/></marker>
<marker style="overflow:visible" id="Arrow2Mstarts" refX="0" refY="0" orient="auto">
<path transform="scale(0.6,0.6)" d="M 8.7185878,4.0337352 L -2.2072895,0.016013256 L 8.7185884,-4.0017078 C 6.97309,-1.6296469 6.9831476,1.6157441 8.7185878,4.0337352 z" style="fill:#ff0000;stroke:#ff0000;stroke-width:0.625;stroke-linejoin:round"/></marker>
<marker style="overflow:visible" id="Arrow2MstartQ" refX="0" refY="0" orient="auto">
<path transform="scale(0.6,0.6)" d="M 8.7185878,4.0337352 L -2.2072895,0.016013256 L 8.7185884,-4.0017078 C 6.97309,-1.6296469 6.9831476,1.6157441 8.7185878,4.0337352 z" style="fill:#ff0000;stroke:#ff0000;stroke-width:0.625;stroke-linejoin:round"/></marker>
<marker style="overflow:visible" id="Arrow2MstartC" refX="0" refY="0" orient="auto">
<path transform="scale(0.6,0.6)" d="M 8.7185878,4.0337352 L -2.2072895,0.016013256 L 8.7185884,-4.0017078 C 6.97309,-1.6296469 6.9831476,1.6157441 8.7185878,4.0337352 z" style="fill:#ff0000;stroke:#ff0000;stroke-width:0.625;stroke-linejoin:round"/></marker>
<marker style="overflow:visible" id="Arrow2Mstartc" refX="0" refY="0" orient="auto">
<path transform="scale(0.6,0.6)" d="M 8.7185878,4.0337352 L -2.2072895,0.016013256 L 8.7185884,-4.0017078 C 6.97309,-1.6296469 6.9831476,1.6157441 8.7185878,4.0337352 z" style="fill:#ff0000;stroke:#ff0000;stroke-width:0.625;stroke-linejoin:round"/></marker>
<marker style="overflow:visible" id="Arrow2MstartCH" refX="0" refY="0" orient="auto">
<path transform="scale(0.6,0.6)" d="M 8.7185878,4.0337352 L -2.2072895,0.016013256 L 8.7185884,-4.0017078 C 6.97309,-1.6296469 6.9831476,1.6157441 8.7185878,4.0337352 z" style="fill:#ff0000;stroke:#ff0000;stroke-width:0.625;stroke-linejoin:round"/></marker>
<marker style="overflow:visible" id="Arrow2Mstart3" refX="0" refY="0" orient="auto">
<path transform="scale(0.6,0.6)" d="M 8.7185878,4.0337352 L -2.2072895,0.016013256 L 8.7185884,-4.0017078 C 6.97309,-1.6296469 6.9831476,1.6157441 8.7185878,4.0337352 z" style="fill:#ff0000;stroke:#ff0000;stroke-width:0.625;stroke-linejoin:round"/></marker>
<marker style="overflow:visible" id="Arrow2Mstartl" refX="0" refY="0" orient="auto">
<path transform="scale(0.6,0.6)" d="M 8.7185878,4.0337352 L -2.2072895,0.016013256 L 8.7185884,-4.0017078 C 6.97309,-1.6296469 6.9831476,1.6157441 8.7185878,4.0337352 z" style="fill:#ff0000;stroke:#ff0000;stroke-width:0.625;stroke-linejoin:round"/></marker>
<marker style="overflow:visible" id="Arrow2MstartFL" refX="0" refY="0" orient="auto">
<path transform="scale(0.6,0.6)" d="M 8.7185878,4.0337352 L -2.2072895,0.016013256 L 8.7185884,-4.0017078 C 6.97309,-1.6296469 6.9831476,1.6157441 8.7185878,4.0337352 z" style="fill:#c12d2d;stroke:#c12d2d;stroke-width:0.625;stroke-linejoin:round"/></marker>
<marker style="overflow:visible" id="Arrow2MstartWD" refX="0" refY="0" orient="auto">
<path transform="scale(0.6,0.6)" d="M 8.7185878,4.0337352 L -2.2072895,0.016013256 L 8.7185884,-4.0017078 C 6.97309,-1.6296469 6.9831476,1.6157441 8.7185878,4.0337352 z" style="fill:#c12d2d;stroke:#c12d2d;stroke-width:0.625;stroke-linejoin:round"/></marker>
<marker style="overflow:visible" id="Arrow2MstartwF" refX="0" refY="0" orient="auto">
<path transform="scale(0.6,0.6)" d="M 8.7185878,4.0337352 L -2.2072895,0.016013256 L 8.7185884,-4.0017078 C 6.97309,-1.6296469 6.9831476,1.6157441 8.7185878,4.0337352 z" style="fill:#c12d2d;stroke:#c12d2d;stroke-width:0.625;stroke-linejoin:round"/></marker>
<marker style="overflow:visible" id="Arrow2Mstart0H" refX="0" refY="0" orient="auto">
<path transform="scale(0.6,0.6)" d="M 8.7185878,4.0337352 L -2.2072895,0.016013256 L 8.7185884,-4.0017078 C 6.97309,-1.6296469 6.9831476,1.6157441 8.7185878,4.0337352 z" style="fill:#c12d2d;stroke:#c12d2d;stroke-width:0.625;stroke-linejoin:round"/></marker>
<marker style="overflow:visible" id="Arrow2Mstartu7" refX="0" refY="0" orient="auto">
<path transform="scale(0.6,0.6)" d="M 8.7185878,4.0337352 L -2.2072895,0.016013256 L 8.7185884,-4.0017078 C 6.97309,-1.6296469 6.9831476,1.6157441 8.7185878,4.0337352 z" style="fill:#c12d2d;stroke:#c12d2d;stroke-width:0.625;stroke-linejoin:round"/></marker>
<marker style="overflow:visible" id="Arrow2MstartUJ" refX="0" refY="0" orient="auto">
<path transform="scale(0.6,0.6)" d="M 8.7185878,4.0337352 L -2.2072895,0.016013256 L 8.7185884,-4.0017078 C 6.97309,-1.6296469 6.9831476,1.6157441 8.7185878,4.0337352 z" style="fill:#c12d2d;stroke:#c12d2d;stroke-width:0.625;stroke-linejoin:round"/></marker>
<marker style="overflow:visible" id="Arrow2Mstart4e" refX="0" refY="0" orient="auto">
<path transform="scale(0.6,0.6)" d="M 8.7185878,4.0337352 L -2.2072895,0.016013256 L 8.7185884,-4.0017078 C 6.97309,-1.6296469 6.9831476,1.6157441 8.7185878,4.0337352 z" style="fill:#c12d2d;stroke:#c12d2d;stroke-width:0.625;stroke-linejoin:round"/></marker>
<marker style="overflow:visible" id="Arrow2MstartGdX" refX="0" refY="0" orient="auto">
<path transform="scale(0.6,0.6)" d="M 8.7185878,4.0337352 L -2.2072895,0.016013256 L 8.7185884,-4.0017078 C 6.97309,-1.6296469 6.9831476,1.6157441 8.7185878,4.0337352 z" style="fill:#c12d2d;stroke:#c12d2d;stroke-width:0.625;stroke-linejoin:round"/></marker>
<marker style="overflow:visible" id="Arrow2MstarthV" refX="0" refY="0" orient="auto">
<path transform="scale(0.6,0.6)" d="M 8.7185878,4.0337352 L -2.2072895,0.016013256 L 8.7185884,-4.0017078 C 6.97309,-1.6296469 6.9831476,1.6157441 8.7185878,4.0337352 z" style="fill:#c12d2d;stroke:#c12d2d;stroke-width:0.625;stroke-linejoin:round"/></marker>
<marker style="overflow:visible" id="Arrow2MstartGT7" refX="0" refY="0" orient="auto">
<path transform="scale(0.6,0.6)" d="M 8.7185878,4.0337352 L -2.2072895,0.016013256 L 8.7185884,-4.0017078 C 6.97309,-1.6296469 6.9831476,1.6157441 8.7185878,4.0337352 z" style="fill:#c12d2d;stroke:#c12d2d;stroke-width:0.625;stroke-linejoin:round"/></marker>
<marker style="overflow:visible" id="Arrow2Mstart9K" refX="0" refY="0" orient="auto">
<path transform="scale(0.6,0.6)" d="M 8.7185878,4.0337352 L -2.2072895,0.016013256 L 8.7185884,-4.0017078 C 6.97309,-1.6296469 6.9831476,1.6157441 8.7185878,4.0337352 z" style="fill:#c12d2d;stroke:#c12d2d;stroke-width:0.625;stroke-linejoin:round"/></marker>
<marker style="overflow:visible" id="Arrow2MstartLy" refX="0" refY="0" orient="auto">
<path transform="scale(0.6,0.6)" d="M 8.7185878,4.0337352 L -2.2072895,0.016013256 L 8.7185884,-4.0017078 C 6.97309,-1.6296469 6.9831476,1.6157441 8.7185878,4.0337352 z" style="fill:#c12d2d;stroke:#c12d2d;stroke-width:0.625;stroke-linejoin:round"/></marker>
<marker style="overflow:visible" id="Arrow2MstartGS" refX="0" refY="0" orient="auto">
<path transform="scale(0.6,0.6)" d="M 8.7185878,4.0337352 L -2.2072895,0.016013256 L 8.7185884,-4.0017078 C 6.97309,-1.6296469 6.9831476,1.6157441 8.7185878,4.0337352 z" style="fill:#c12d2d;stroke:#c12d2d;stroke-width:0.625;stroke-linejoin:round"/></marker>
<marker style="overflow:visible" id="Arrow2MstartQw" refX="0" refY="0" orient="auto">
<path transform="scale(0.6,0.6)" d="M 8.7185878,4.0337352 L -2.2072895,0.016013256 L 8.7185884,-4.0017078 C 6.97309,-1.6296469 6.9831476,1.6157441 8.7185878,4.0337352 z" style="fill:#c12d2d;stroke:#c12d2d;stroke-width:0.625;stroke-linejoin:round"/></marker>
<marker style="overflow:visible" id="Arrow2MstartC7" refX="0" refY="0" orient="auto">
<path transform="scale(0.6,0.6)" d="M 8.7185878,4.0337352 L -2.2072895,0.016013256 L 8.7185884,-4.0017078 C 6.97309,-1.6296469 6.9831476,1.6157441 8.7185878,4.0337352 z" style="fill:#c12d2d;stroke:#c12d2d;stroke-width:0.625;stroke-linejoin:round"/></marker>
<marker style="overflow:visible" id="Arrow2MstartcC" refX="0" refY="0" orient="auto">
<path transform="scale(0.6,0.6)" d="M 8.7185878,4.0337352 L -2.2072895,0.016013256 L 8.7185884,-4.0017078 C 6.97309,-1.6296469 6.9831476,1.6157441 8.7185878,4.0337352 z" style="fill:#c12d2d;stroke:#c12d2d;stroke-width:0.625;stroke-linejoin:round"/></marker>
<marker style="overflow:visible" id="Arrow2Mstartsg" refX="0" refY="0" orient="auto">
<path transform="scale(0.6,0.6)" d="M 8.7185878,4.0337352 L -2.2072895,0.016013256 L 8.7185884,-4.0017078 C 6.97309,-1.6296469 6.9831476,1.6157441 8.7185878,4.0337352 z" style="fill:#c12d2d;stroke:#c12d2d;stroke-width:0.625;stroke-linejoin:round"/></marker>
<marker style="overflow:visible" id="Arrow2MstartCHl" refX="0" refY="0" orient="auto">
<path transform="scale(0.6,0.6)" d="M 8.7185878,4.0337352 L -2.2072895,0.016013256 L 8.7185884,-4.0017078 C 6.97309,-1.6296469 6.9831476,1.6157441 8.7185878,4.0337352 z" style="fill:#c12d2d;stroke:#c12d2d;stroke-width:0.625;stroke-linejoin:round"/></marker>
<marker style="overflow:visible" id="Arrow2Mstart39" refX="0" refY="0" orient="auto">
<path transform="scale(0.6,0.6)" d="M 8.7185878,4.0337352 L -2.2072895,0.016013256 L 8.7185884,-4.0017078 C 6.97309,-1.6296469 6.9831476,1.6157441 8.7185878,4.0337352 z" style="fill:#c12d2d;stroke:#c12d2d;stroke-width:0.625;stroke-linejoin:round"/></marker>
<marker style="overflow:visible" id="Arrow2Mstartla" refX="0" refY="0" orient="auto">
<path transform="scale(0.6,0.6)" d="M 8.7185878,4.0337352 L -2.2072895,0.016013256 L 8.7185884,-4.0017078 C 6.97309,-1.6296469 6.9831476,1.6157441 8.7185878,4.0337352 z" style="fill:#c12d2d;stroke:#c12d2d;stroke-width:0.625;stroke-linejoin:round"/></marker>
<marker style="overflow:visible" id="Arrow2Mstart39T" refX="0" refY="0" orient="auto">
<path transform="scale(0.6,0.6)" d="M 8.7185878,4.0337352 L -2.2072895,0.016013256 L 8.7185884,-4.0017078 C 6.97309,-1.6296469 6.9831476,1.6157441 8.7185878,4.0337352 z" style="fill:#520d0d;stroke:#520d0d;stroke-width:0.625;stroke-linejoin:round"/></marker>
<marker style="overflow:visible" id="Arrow2MstartGdXd" refX="0" refY="0" orient="auto">
<path transform="scale(0.6,0.6)" d="M 8.7185878,4.0337352 L -2.2072895,0.016013256 L 8.7185884,-4.0017078 C 6.97309,-1.6296469 6.9831476,1.6157441 8.7185878,4.0337352 z" style="fill:#520d0d;stroke:#520d0d;stroke-width:0.625;stroke-linejoin:round"/></marker>
<marker style="overflow:visible" id="Arrow2Mstart4eN" refX="0" refY="0" orient="auto">
<path transform="scale(0.6,0.6)" d="M 8.7185878,4.0337352 L -2.2072895,0.016013256 L 8.7185884,-4.0017078 C 6.97309,-1.6296469 6.9831476,1.6157441 8.7185878,4.0337352 z" style="fill:#520d0d;stroke:#520d0d;stroke-width:0.625;stroke-linejoin:round"/></marker>
<marker style="overflow:visible" id="Arrow2MstarthVX" refX="0" refY="0" orient="auto">
<path transform="scale(0.6,0.6)" d="M 8.7185878,4.0337352 L -2.2072895,0.016013256 L 8.7185884,-4.0017078 C 6.97309,-1.6296469 6.9831476,1.6157441 8.7185878,4.0337352 z" style="fill:#520d0d;stroke:#520d0d;stroke-width:0.625;stroke-linejoin:round"/></marker>
<marker style="overflow:visible" id="Arrow2MstartLyw" refX="0" refY="0" orient="auto">
<path transform="scale(0.6,0.6)" d="M 8.7185878,4.0337352 L -2.2072895,0.016013256 L 8.7185884,-4.0017078 C 6.97309,-1.6296469 6.9831476,1.6157441 8.7185878,4.0337352 z" style="fill:#520d0d;stroke:#520d0d;stroke-width:0.625;stroke-linejoin:round"/></marker>
<marker style="overflow:visible" id="Arrow2MstartGdXt" refX="0" refY="0" orient="auto">
<path transform="scale(0.6,0.6)" d="M 8.7185878,4.0337352 L -2.2072895,0.016013256 L 8.7185884,-4.0017078 C 6.97309,-1.6296469 6.9831476,1.6157441 8.7185878,4.0337352 z" style="fill:#c12d2d;stroke:#c12d2d;stroke-width:0.625;stroke-linejoin:round"/></marker>
<marker style="overflow:visible" id="Arrow2Mstart39d" refX="0" refY="0" orient="auto">
<path transform="scale(0.6,0.6)" d="M 8.7185878,4.0337352 L -2.2072895,0.016013256 L 8.7185884,-4.0017078 C 6.97309,-1.6296469 6.9831476,1.6157441 8.7185878,4.0337352 z" style="fill:#520d0d;stroke:#520d0d;stroke-width:0.625;stroke-linejoin:round"/></marker>
<marker style="overflow:visible" id="Arrow2Mstart4ej" refX="0" refY="0" orient="auto">
<path transform="scale(0.6,0.6)" d="M 8.7185878,4.0337352 L -2.2072895,0.016013256 L 8.7185884,-4.0017078 C 6.97309,-1.6296469 6.9831476,1.6157441 8.7185878,4.0337352 z" style="fill:#520d0d;stroke:#520d0d;stroke-width:0.625;stroke-linejoin:round"/></marker>
<marker style="overflow:visible" id="Arrow2MstarthVp" refX="0" refY="0" orient="auto">
<path transform="scale(0.6,0.6)" d="M 8.7185878,4.0337352 L -2.2072895,0.016013256 L 8.7185884,-4.0017078 C 6.97309,-1.6296469 6.9831476,1.6157441 8.7185878,4.0337352 z" style="fill:#520d0d;stroke:#520d0d;stroke-width:0.625;stroke-linejoin:round"/></marker>
<marker style="overflow:visible" id="Arrow2MstartLyC" refX="0" refY="0" orient="auto">
<path transform="scale(0.6,0.6)" d="M 8.7185878,4.0337352 L -2.2072895,0.016013256 L 8.7185884,-4.0017078 C 6.97309,-1.6296469 6.9831476,1.6157441 8.7185878,4.0337352 z" style="fill:#520d0d;stroke:#520d0d;stroke-width:0.625;stroke-linejoin:round"/></marker>
<marker style="overflow:visible" id="Arrow2Mstart4ei" refX="0" refY="0" orient="auto">
<path transform="scale(0.6,0.6)" d="M 8.7185878,4.0337352 L -2.2072895,0.016013256 L 8.7185884,-4.0017078 C 6.97309,-1.6296469 6.9831476,1.6157441 8.7185878,4.0337352 z" style="fill:#52410d;stroke:#52410d;stroke-width:0.625;stroke-linejoin:round"/></marker>
<marker style="overflow:visible" id="Arrow2Mstart4e5" refX="0" refY="0" orient="auto">
<path transform="scale(0.6,0.6)" d="M 8.7185878,4.0337352 L -2.2072895,0.016013256 L 8.7185884,-4.0017078 C 6.97309,-1.6296469 6.9831476,1.6157441 8.7185878,4.0337352 z" style="fill:#c12d2d;stroke:#c12d2d;stroke-width:0.625;stroke-linejoin:round"/></marker>
<marker style="overflow:visible" id="Arrow2MstartGdXw" refX="0" refY="0" orient="auto">
<path transform="scale(0.6,0.6)" d="M 8.7185878,4.0337352 L -2.2072895,0.016013256 L 8.7185884,-4.0017078 C 6.97309,-1.6296469 6.9831476,1.6157441 8.7185878,4.0337352 z" style="fill:#52410d;stroke:#52410d;stroke-width:0.625;stroke-linejoin:round"/></marker>
<marker style="overflow:visible" id="Arrow2MstarthVb" refX="0" refY="0" orient="auto">
<path transform="scale(0.6,0.6)" d="M 8.7185878,4.0337352 L -2.2072895,0.016013256 L 8.7185884,-4.0017078 C 6.97309,-1.6296469 6.9831476,1.6157441 8.7185878,4.0337352 z" style="fill:#52410d;stroke:#52410d;stroke-width:0.625;stroke-linejoin:round"/></marker>
<marker style="overflow:visible" id="Arrow2MstartGdXa" refX="0" refY="0" orient="auto">
<path transform="scale(0.6,0.6)" d="M 8.7185878,4.0337352 L -2.2072895,0.016013256 L 8.7185884,-4.0017078 C 6.97309,-1.6296469 6.9831476,1.6157441 8.7185878,4.0337352 z" style="fill:#520d0d;stroke:#520d0d;stroke-width:0.625;stroke-linejoin:round"/></marker>
<marker style="overflow:visible" id="Arrow2Mstart39a" refX="0" refY="0" orient="auto">
<path transform="scale(0.6,0.6)" d="M 8.7185878,4.0337352 L -2.2072895,0.016013256 L 8.7185884,-4.0017078 C 6.97309,-1.6296469 6.9831476,1.6157441 8.7185878,4.0337352 z" style="fill:#c12d2d;stroke:#c12d2d;stroke-width:0.625;stroke-linejoin:round"/></marker>
<marker style="overflow:visible" id="Arrow2MstartLya" refX="0" refY="0" orient="auto">
<path transform="scale(0.6,0.6)" d="M 8.7185878,4.0337352 L -2.2072895,0.016013256 L 8.7185884,-4.0017078 C 6.97309,-1.6296469 6.9831476,1.6157441 8.7185878,4.0337352 z" style="fill:#52410d;stroke:#52410d;stroke-width:0.625;stroke-linejoin:round"/></marker>
<marker style="overflow:visible" id="Arrow2MstarthVU" refX="0" refY="0" orient="auto">
<path transform="scale(0.6,0.6)" d="M 8.7185878,4.0337352 L -2.2072895,0.016013256 L 8.7185884,-4.0017078 C 6.97309,-1.6296469 6.9831476,1.6157441 8.7185878,4.0337352 z" style="fill:#c12d2d;stroke:#c12d2d;stroke-width:0.625;stroke-linejoin:round"/></marker>
<marker style="overflow:visible" id="Arrow2Mstart39i" refX="0" refY="0" orient="auto">
<path transform="scale(0.6,0.6)" d="M 8.7185878,4.0337352 L -2.2072895,0.016013256 L 8.7185884,-4.0017078 C 6.97309,-1.6296469 6.9831476,1.6157441 8.7185878,4.0337352 z" style="fill:#52410d;stroke:#52410d;stroke-width:0.625;stroke-linejoin:round"/></marker>
<marker style="overflow:visible" id="Arrow2MstartLyD" refX="0" refY="0" orient="auto">
<path transform="scale(0.6,0.6)" d="M 8.7185878,4.0337352 L -2.2072895,0.016013256 L 8.7185884,-4.0017078 C 6.97309,-1.6296469 6.9831476,1.6157441 8.7185878,4.0337352 z" style="fill:#c12d2d;stroke:#c12d2d;stroke-width:0.625;stroke-linejoin:round"/></marker>
<marker style="overflow:visible" id="Arrow2Mstart39Tv" refX="0" refY="0" orient="auto">
<path transform="scale(0.6,0.6)" d="M 8.7185878,4.0337352 L -2.2072895,0.016013256 L 8.7185884,-4.0017078 C 6.97309,-1.6296469 6.9831476,1.6157441 8.7185878,4.0337352 z" style="fill:#ff0000;stroke:#ff0000;stroke-width:0.625;stroke-linejoin:round"/></marker>
<marker style="overflow:visible" id="Arrow2MstartGdXaz" refX="0" refY="0" orient="auto">
<path transform="scale(0.6,0.6)" d="M 8.7185878,4.0337352 L -2.2072895,0.016013256 L 8.7185884,-4.0017078 C 6.97309,-1.6296469 6.9831476,1.6157441 8.7185878,4.0337352 z" style="fill:#ff0000;stroke:#ff0000;stroke-width:0.625;stroke-linejoin:round"/></marker>
<marker style="overflow:visible" id="Arrow2MstarthVX4" refX="0" refY="0" orient="auto">
<path transform="scale(0.6,0.6)" d="M 8.7185878,4.0337352 L -2.2072895,0.016013256 L 8.7185884,-4.0017078 C 6.97309,-1.6296469 6.9831476,1.6157441 8.7185878,4.0337352 z" style="fill:#ff0000;stroke:#ff0000;stroke-width:0.625;stroke-linejoin:round"/></marker>
<marker style="overflow:visible" id="Arrow2MstartLywp" refX="0" refY="0" orient="auto">
<path transform="scale(0.6,0.6)" d="M 8.7185878,4.0337352 L -2.2072895,0.016013256 L 8.7185884,-4.0017078 C 6.97309,-1.6296469 6.9831476,1.6157441 8.7185878,4.0337352 z" style="fill:#ff0000;stroke:#ff0000;stroke-width:0.625;stroke-linejoin:round"/></marker>
<marker style="overflow:visible" id="Arrow2MstarthVXZ" refX="0" refY="0" orient="auto">
<path transform="scale(0.6,0.6)" d="M 8.7185878,4.0337352 L -2.2072895,0.016013256 L 8.7185884,-4.0017078 C 6.97309,-1.6296469 6.9831476,1.6157441 8.7185878,4.0337352 z" style="fill:#ff0000;stroke:#ff0000;stroke-width:0.625;stroke-linejoin:round"/></marker>
<marker style="overflow:visible" id="Arrow2Mstart39TP" refX="0" refY="0" orient="auto">
<path transform="scale(0.6,0.6)" d="M 8.7185878,4.0337352 L -2.2072895,0.016013256 L 8.7185884,-4.0017078 C 6.97309,-1.6296469 6.9831476,1.6157441 8.7185878,4.0337352 z" style="fill:#ff0000;stroke:#ff0000;stroke-width:0.625;stroke-linejoin:round"/></marker>
<marker style="overflow:visible" id="Arrow2MstartGdXaU" refX="0" refY="0" orient="auto">
<path transform="scale(0.6,0.6)" d="M 8.7185878,4.0337352 L -2.2072895,0.016013256 L 8.7185884,-4.0017078 C 6.97309,-1.6296469 6.9831476,1.6157441 8.7185878,4.0337352 z" style="fill:#ff0000;stroke:#ff0000;stroke-width:0.625;stroke-linejoin:round"/></marker>
<marker style="overflow:visible" id="Arrow2MstartLyw6" refX="0" refY="0" orient="auto">
<path transform="scale(0.6,0.6)" d="M 8.7185878,4.0337352 L -2.2072895,0.016013256 L 8.7185884,-4.0017078 C 6.97309,-1.6296469 6.9831476,1.6157441 8.7185878,4.0337352 z" style="fill:#ff0000;stroke:#ff0000;stroke-width:0.625;stroke-linejoin:round"/></marker>
<marker style="overflow:visible" id="Arrow2MstarthVXX" refX="0" refY="0" orient="auto">
<path transform="scale(0.6,0.6)" d="M 8.7185878,4.0337352 L -2.2072895,0.016013256 L 8.7185884,-4.0017078 C 6.97309,-1.6296469 6.9831476,1.6157441 8.7185878,4.0337352 z" style="fill:#ff0000;stroke:#ff0000;stroke-width:0.625;stroke-linejoin:round"/></marker>
<marker style="overflow:visible" id="Arrow2MstarthVX8" refX="0" refY="0" orient="auto">
<path transform="scale(0.6,0.6)" d="M 8.7185878,4.0337352 L -2.2072895,0.016013256 L 8.7185884,-4.0017078 C 6.97309,-1.6296469 6.9831476,1.6157441 8.7185878,4.0337352 z" style="fill:#ff0000;stroke:#ff0000;stroke-width:0.625;stroke-linejoin:round"/></marker>
<marker style="overflow:visible" id="Arrow2Mstart39T6" refX="0" refY="0" orient="auto">
<path transform="scale(0.6,0.6)" d="M 8.7185878,4.0337352 L -2.2072895,0.016013256 L 8.7185884,-4.0017078 C 6.97309,-1.6296469 6.9831476,1.6157441 8.7185878,4.0337352 z" style="fill:#ff0000;stroke:#ff0000;stroke-width:0.625;stroke-linejoin:round"/></marker>
<marker style="overflow:visible" id="Arrow2MstartGdXam" refX="0" refY="0" orient="auto">
<path transform="scale(0.6,0.6)" d="M 8.7185878,4.0337352 L -2.2072895,0.016013256 L 8.7185884,-4.0017078 C 6.97309,-1.6296469 6.9831476,1.6157441 8.7185878,4.0337352 z" style="fill:#ff0000;stroke:#ff0000;stroke-width:0.625;stroke-linejoin:round"/></marker>
<marker style="overflow:visible" id="Arrow2MstartGdXao" refX="0" refY="0" orient="auto">
<path transform="scale(0.6,0.6)" d="M 8.7185878,4.0337352 L -2.2072895,0.016013256 L 8.7185884,-4.0017078 C 6.97309,-1.6296469 6.9831476,1.6157441 8.7185878,4.0337352 z" style="fill:#ff0000;stroke:#ff0000;stroke-width:0.625;stroke-linejoin:round"/></marker>
<marker style="overflow:visible" id="Arrow2Mstart39Tn" refX="0" refY="0" orient="auto">
<path transform="scale(0.6,0.6)" d="M 8.7185878,4.0337352 L -2.2072895,0.016013256 L 8.7185884,-4.0017078 C 6.97309,-1.6296469 6.9831476,1.6157441 8.7185878,4.0337352 z" style="fill:#ff0000;stroke:#ff0000;stroke-width:0.625;stroke-linejoin:round"/></marker>
<marker style="overflow:visible" id="Arrow2MstartLywH" refX="0" refY="0" orient="auto">
<path transform="scale(0.6,0.6)" d="M 8.7185878,4.0337352 L -2.2072895,0.016013256 L 8.7185884,-4.0017078 C 6.97309,-1.6296469 6.9831476,1.6157441 8.7185878,4.0337352 z" style="fill:#ff0000;stroke:#ff0000;stroke-width:0.625;stroke-linejoin:round"/></marker>
<marker style="overflow:visible" id="Arrow2MstartLywQ" refX="0" refY="0" orient="auto">
<path transform="scale(0.6,0.6)" d="M 8.7185878,4.0337352 L -2.2072895,0.016013256 L 8.7185884,-4.0017078 C 6.97309,-1.6296469 6.9831476,1.6157441 8.7185878,4.0337352 z" style="fill:#ff0000;stroke:#ff0000;stroke-width:0.625;stroke-linejoin:round"/></marker>
<marker style="overflow:visible" id="Arrow2MstartlW" refX="0" refY="0" orient="auto">
<path transform="scale(0.6,0.6)" d="M 8.7185878,4.0337352 L -2.2072895,0.016013256 L 8.7185884,-4.0017078 C 6.97309,-1.6296469 6.9831476,1.6157441 8.7185878,4.0337352 z" style="fill:#ca7f8d;stroke:#ca7f8d;stroke-width:0.625;stroke-linejoin:round"/></marker>
<marker style="overflow:visible" id="Arrow2MstartlWL" refX="0" refY="0" orient="auto">
<path transform="scale(0.6,0.6)" d="M 8.7185878,4.0337352 L -2.2072895,0.016013256 L 8.7185884,-4.0017078 C 6.97309,-1.6296469 6.9831476,1.6157441 8.7185878,4.0337352 z" style="fill:#f39306;stroke:#f39306;stroke-width:0.625;stroke-linejoin:round"/></marker>
<marker style="overflow:visible" id="Arrow2MstartlWLL" refX="0" refY="0" orient="auto">
<path transform="scale(0.6,0.6)" d="M 8.7185878,4.0337352 L -2.2072895,0.016013256 L 8.7185884,-4.0017078 C 6.97309,-1.6296469 6.9831476,1.6157441 8.7185878,4.0337352 z" style="fill:#000;stroke:#000;stroke-width:0.625;stroke-linejoin:round"/></marker>
<marker style="overflow:visible" id="Arrow2Mstart39TnI" refX="0" refY="0" orient="auto">
<path transform="scale(0.6,0.6)" d="M 8.7185878,4.0337352 L -2.2072895,0.016013256 L 8.7185884,-4.0017078 C 6.97309,-1.6296469 6.9831476,1.6157441 8.7185878,4.0337352 z" style="fill:#1a1313;stroke:#1a1313;stroke-width:0.625;stroke-linejoin:round"/></marker>
<marker style="overflow:visible" id="Arrow2Mstart39TnS" refX="0" refY="0" orient="auto">
<path transform="scale(0.6,0.6)" d="M 8.7185878,4.0337352 L -2.2072895,0.016013256 L 8.7185884,-4.0017078 C 6.97309,-1.6296469 6.9831476,1.6157441 8.7185878,4.0337352 z" style="fill:#1a1313;stroke:#1a1313;stroke-width:0.625;stroke-linejoin:round"/></marker>
<marker style="overflow:visible" id="Arrow2Mstart39Tnk" refX="0" refY="0" orient="auto">
<path transform="scale(0.6,0.6)" d="M 8.7185878,4.0337352 L -2.2072895,0.016013256 L 8.7185884,-4.0017078 C 6.97309,-1.6296469 6.9831476,1.6157441 8.7185878,4.0337352 z" style="fill:#1a1313;stroke:#1a1313;stroke-width:0.625;stroke-linejoin:round"/></marker>
<marker style="overflow:visible" id="Arrow2Mstart39Tnb" refX="0" refY="0" orient="auto">
<path transform="scale(0.6,0.6)" d="M 8.7185878,4.0337352 L -2.2072895,0.016013256 L 8.7185884,-4.0017078 C 6.97309,-1.6296469 6.9831476,1.6157441 8.7185878,4.0337352 z" style="fill:#1a1313;stroke:#1a1313;stroke-width:0.625;stroke-linejoin:round"/></marker>
<marker style="overflow:visible" id="Arrow2Mstart39Tnw" refX="0" refY="0" orient="auto">
<path transform="scale(0.6,0.6)" d="M 8.7185878,4.0337352 L -2.2072895,0.016013256 L 8.7185884,-4.0017078 C 6.97309,-1.6296469 6.9831476,1.6157441 8.7185878,4.0337352 z" style="fill:#1a1313;stroke:#1a1313;stroke-width:0.625;stroke-linejoin:round"/></marker>
<marker style="overflow:visible" id="Arrow2Mstart39TnIP" refX="0" refY="0" orient="auto">
<path transform="scale(0.6,0.6)" d="M 8.7185878,4.0337352 L -2.2072895,0.016013256 L 8.7185884,-4.0017078 C 6.97309,-1.6296469 6.9831476,1.6157441 8.7185878,4.0337352 z" style="fill:#ff0000;stroke:#ff0000;stroke-width:0.625;stroke-linejoin:round"/></marker>
<marker style="overflow:visible" id="Arrow2Mstart39TnS4" refX="0" refY="0" orient="auto">
<path transform="scale(0.6,0.6)" d="M 8.7185878,4.0337352 L -2.2072895,0.016013256 L 8.7185884,-4.0017078 C 6.97309,-1.6296469 6.9831476,1.6157441 8.7185878,4.0337352 z" style="fill:#ff0000;stroke:#ff0000;stroke-width:0.625;stroke-linejoin:round"/></marker>
<marker style="overflow:visible" id="Arrow2Mstart39TnkU" refX="0" refY="0" orient="auto">
<path transform="scale(0.6,0.6)" d="M 8.7185878,4.0337352 L -2.2072895,0.016013256 L 8.7185884,-4.0017078 C 6.97309,-1.6296469 6.9831476,1.6157441 8.7185878,4.0337352 z" style="fill:#ff0000;stroke:#ff0000;stroke-width:0.625;stroke-linejoin:round"/></marker>
<marker style="overflow:visible" id="Arrow2Mstart39Tnbg" refX="0" refY="0" orient="auto">
<path transform="scale(0.6,0.6)" d="M 8.7185878,4.0337352 L -2.2072895,0.016013256 L 8.7185884,-4.0017078 C 6.97309,-1.6296469 6.9831476,1.6157441 8.7185878,4.0337352 z" style="fill:#ff0000;stroke:#ff0000;stroke-width:0.625;stroke-linejoin:round"/></marker>
<marker style="overflow:visible" id="Arrow2Mstart39Tnwl" refX="0" refY="0" orient="auto">
<path transform="scale(0.6,0.6)" d="M 8.7185878,4.0337352 L -2.2072895,0.016013256 L 8.7185884,-4.0017078 C 6.97309,-1.6296469 6.9831476,1.6157441 8.7185878,4.0337352 z" style="fill:#ff0000;stroke:#ff0000;stroke-width:0.625;stroke-linejoin:round"/></marker>
<marker style="overflow:visible" id="Arrow2Mstart-1" refX="0" refY="0" orient="auto">
<path transform="scale(0.6,0.6)" d="M 8.7185878,4.0337352 -2.2072895,0.01601326 8.7185884,-4.0017078 c -1.7454984,2.3720609 -1.7354408,5.6174519 -6e-7,8.035443 z" style="stroke-width:0.625;stroke-linejoin:round"/></marker>
</defs>
<g transform="translate(77.781297,-1420.9054)">
<path d="M 370.08027,1820.9675 L 370.08027,1767.629" style="fill:none;stroke:#000;stroke-width:2.08455849;stroke-linecap:butt;stroke-linejoin:miter;marker-start:url(#Arrow2Mstart);stroke-miterlimit:4;stroke-dasharray:none;stroke-opacity:1"/>
<g style="opacity:1;fill:#a0eb89;fill-opacity:1;fill-rule:nonzero;stroke:#000;stroke-width:4;stroke-linecap:round;stroke-linejoin:round;stroke-miterlimit:4;stroke-dasharray:none;stroke-dashoffset:0;stroke-opacity:1" id="g10375">
<path style="fill:#a0eb89;fill-opacity:1;stroke:#000;stroke-width:2.08455849;stroke-miterlimit:4;stroke-dasharray:none;stroke-opacity:1" d="M 355.16728,1672.6671 L 410.4524,1672.6671 L 410.4524,1753.6747 L 355.16728,1753.6747 L 355.16728,1672.6671 z"/>
<path style="fill:#a0eb89;fill-opacity:1;stroke:#000;stroke-width:2.08455849;stroke-miterlimit:4;stroke-dasharray:none;stroke-opacity:1" d="M 328.97891,1701.2288 L 328.97891,1782.2365 L 355.16728,1753.6747 L 355.16728,1672.6671 L 328.97891,1701.2288 z"/>
<path style="fill:#a0eb89;fill-opacity:1;stroke:#000;stroke-width:2.08455849;stroke-miterlimit:4;stroke-dasharray:none;stroke-opacity:1" d="M 328.97891,1782.2365 L 384.26403,1782.2365 L 410.4524,1753.6747 L 355.16728,1753.6747 L 328.97891,1782.2365 z"/>
<path style="fill:#b1eff0;fill-opacity:1;stroke:#000;stroke-width:2.08455849;stroke-miterlimit:4;stroke-dasharray:none;stroke-opacity:1" d="M 328.97891,1701.2288 L 384.26403,1701.2288 L 410.4524,1672.6671 L 355.16728,1672.6671 L 328.97891,1701.2288 z"/>
<path transform="translate(-5.9527082e-2,-2.653418)" style="fill:#77a8a6;fill-opacity:1;stroke:#000;stroke-width:2.08455849;stroke-miterlimit:4;stroke-dasharray:none;stroke-opacity:1" d="M 384.2045,1703.8822 L 384.2045,1784.8899 L 410.39287,1756.3282 L 410.39287,1675.3205 L 384.2045,1703.8822 z"/>
<path style="fill:#a0eb89;fill-opacity:1;stroke:#000;stroke-width:2.08455849;stroke-miterlimit:4;stroke-dasharray:none;stroke-opacity:1" d="M 328.97891,1677.8976 L 384.26403,1677.8976 L 384.26403,1758.9052 L 328.97891,1758.9052 L 328.97891,1677.8976 z" transform="translate(-3.0715247e-6,23.331244)"/>
</g>
<rect style="opacity:1;fill:#ff9595;fill-opacity:0.62790695;fill-rule:nonzero;stroke:#c23d3d;stroke-width:1.82501769;stroke-linecap:round;stroke-linejoin:round;stroke-miterlimit:4;stroke-dasharray:none;stroke-dashoffset:4.86700016;stroke-opacity:1" id="rect4097" width="54.555485" height="38.615658" x="1815.2305" y="2151.4243" transform="matrix(1,0,-0.6792945,0.7338657,0,0)" ry="0"/>
<path style="fill:none;stroke:#000;stroke-width:2.08455849;stroke-linecap:butt;stroke-linejoin:miter;marker-start:url(#Arrow2Mstart);stroke-miterlimit:4;stroke-dasharray:none;stroke-opacity:1" d="M 171.95826,1613.4769 L 171.95826,1560.1384"/>
<path d="M 171.95826,1816.7792 L 171.95826,1763.4408" style="fill:none;stroke:#000;stroke-width:2.08455849;stroke-linecap:butt;stroke-linejoin:miter;marker-start:url(#Arrow2Mstart);stroke-miterlimit:4;stroke-dasharray:none;stroke-opacity:1"/>
<g style="fill:none;stroke:#000;stroke-linecap:butt;stroke-linejoin:miter;stroke-miterlimit:10.43299961;stroke-opacity:1;stroke-dasharray:none;stroke-dashoffset:0" transform="matrix(2.6178478,0,0,-2.6178478,-686.96491,3161.8232)">
<path style="fill:#000;stroke-width:0" d="m 394.41,660.47 0.97,0 c 0.75,0 0.83,-0.16 0.83,-0.45 0,-0.07 0,-0.19 -0.07,-0.49 -0.02,-0.05 -0.03,-0.09 -0.03,-0.11 0,-0.08 0.06,-0.12 0.12,-0.12 0.1,0 0.1,0.04 0.15,0.21 l 0.54,2.17 c 0.03,0.1 0.03,0.12 0.03,0.16 0,0.01 -0.02,0.11 -0.12,0.11 -0.1,0 -0.1,-0.05 -0.15,-0.21 -0.2,-0.78 -0.43,-0.96 -1.28,-0.96 l -0.91,0 0.64,2.53 c 0.09,0.35 0.1,0.39 0.54,0.39 l 1.31,0 c 1.23,0 1.46,-0.33 1.46,-1.1 0,-0.23 0,-0.27 -0.03,-0.54 -0.02,-0.13 -0.02,-0.15 -0.02,-0.17 0,-0.05 0.03,-0.12 0.12,-0.12 0.11,0 0.12,0.06 0.14,0.25 l 0.2,1.72 c 0.03,0.27 -0.02,0.27 -0.27,0.27 l -4.88,0 c -0.2,0 -0.3,0 -0.3,-0.2 0,-0.11 0.09,-0.11 0.28,-0.11 0.37,0 0.64,0 0.64,-0.18 0,-0.04 0,-0.06 -0.05,-0.24 l -1.31,-5.27 c -0.1,-0.39 -0.12,-0.47 -0.91,-0.47 -0.17,0 -0.28,0 -0.28,-0.19 0,-0.12 0.12,-0.12 0.15,-0.12 0.29,0 1.03,0.03 1.32,0.03 0.33,0 1.15,-0.03 1.48,-0.03 0.09,0 0.21,0 0.21,0.19 0,0.08 -0.06,0.1 -0.06,0.11 -0.03,0.01 -0.05,0.01 -0.28,0.01 -0.22,0 -0.27,0 -0.51,0.02 -0.29,0.03 -0.32,0.07 -0.32,0.2 0,0.02 0,0.08 0.04,0.23 l 0.61,2.48 z"/>
</g>
<path style="fill:#ff0000;fill-opacity:1;stroke:#1a1313;stroke-width:1.56341898;stroke-linecap:butt;stroke-linejoin:miter;marker-start:url(#Arrow2MstarthVXZ);stroke-miterlimit:4;stroke-dasharray:none;stroke-opacity:1" d="M 354.79682,1577.6068 L 354.79682,1545.5937"/>
<path d="M 406.95537,1577.6068 L 406.95537,1545.5937" style="fill:#e36666;fill-opacity:1;stroke:#1a1313;stroke-width:1.56341898;stroke-linecap:butt;stroke-linejoin:miter;marker-start:url(#Arrow2Mstart39Tn);stroke-miterlimit:4;stroke-dasharray:none;stroke-opacity:1"/>
<path style="fill:#ff0000;fill-opacity:1;stroke:#1a1313;stroke-width:1.56341898;stroke-linecap:butt;stroke-linejoin:miter;marker-start:url(#Arrow2MstartGdXam);stroke-miterlimit:4;stroke-dasharray:none;stroke-opacity:1" d="M 372.18299,1577.6068 L 372.18299,1545.5937"/>
<path style="fill:#ff0000;fill-opacity:1;stroke:#1a1313;stroke-width:1.56341898;stroke-linecap:butt;stroke-linejoin:miter;marker-start:url(#Arrow2MstartLywQ);stroke-miterlimit:4;stroke-dasharray:none;stroke-opacity:1" d="M 389.56921,1577.6068 L 389.56921,1545.5937"/>
<path d="M 346.33929,1586.7409 L 346.33929,1554.7279" style="fill:#ff0000;fill-opacity:1;stroke:#1a1313;stroke-width:1.56341898;stroke-linecap:butt;stroke-linejoin:miter;marker-start:url(#Arrow2MstarthVX8);stroke-miterlimit:4;stroke-dasharray:none;stroke-opacity:1"/>
<path style="fill:#e36666;fill-opacity:1;stroke:#1a1313;stroke-width:1.56341898;stroke-linecap:butt;stroke-linejoin:miter;marker-start:url(#Arrow2Mstart39T6);stroke-miterlimit:4;stroke-dasharray:none;stroke-opacity:1" d="M 398.49784,1586.7409 L 398.49784,1554.7279"/>
<path d="M 363.72546,1586.7409 L 363.72546,1554.7279" style="fill:#ff0000;fill-opacity:1;stroke:#1a1313;stroke-width:1.56341898;stroke-linecap:butt;stroke-linejoin:miter;marker-start:url(#Arrow2MstartGdXao);stroke-miterlimit:4;stroke-dasharray:none;stroke-opacity:1"/>
<path d="M 381.11164,1586.7409 L 381.11164,1554.7279" style="fill:#ff0000;fill-opacity:1;stroke:#1a1313;stroke-width:1.56341898;stroke-linecap:butt;stroke-linejoin:miter;marker-start:url(#Arrow2MstartLywH);stroke-miterlimit:4;stroke-dasharray:none;stroke-opacity:1"/>
<path style="fill:#ff0000;fill-opacity:1;stroke:#1a1313;stroke-width:1.56341898;stroke-linecap:butt;stroke-linejoin:miter;marker-start:url(#Arrow2MstarthVXX);stroke-miterlimit:4;stroke-dasharray:none;stroke-opacity:1" d="M 337.88178,1595.875 L 337.88178,1563.862"/>
<path d="M 390.04031,1595.875 L 390.04031,1563.862" style="fill:#e36666;fill-opacity:1;stroke:#1a1313;stroke-width:1.56341898;stroke-linecap:butt;stroke-linejoin:miter;marker-start:url(#Arrow2Mstart39TP);stroke-miterlimit:4;stroke-dasharray:none;stroke-opacity:1"/>
<path style="fill:#ff0000;fill-opacity:1;stroke:#1a1313;stroke-width:1.56341898;stroke-linecap:butt;stroke-linejoin:miter;marker-start:url(#Arrow2MstartGdXaU);stroke-miterlimit:4;stroke-dasharray:none;stroke-opacity:1" d="M 355.26793,1595.875 L 355.26793,1563.862"/>
<path style="fill:#ff0000;fill-opacity:1;stroke:#1a1313;stroke-width:1.56341898;stroke-linecap:butt;stroke-linejoin:miter;marker-start:url(#Arrow2MstartLyw6);stroke-miterlimit:4;stroke-dasharray:none;stroke-opacity:1" d="M 372.65411,1595.875 L 372.65411,1563.862"/>
<path d="M 329.4243,1605.0091 L 329.4243,1572.9961" style="fill:#ff0000;fill-opacity:1;stroke:#1a1313;stroke-width:1.56341898;stroke-linecap:butt;stroke-linejoin:miter;marker-start:url(#Arrow2MstarthVX4);stroke-miterlimit:4;stroke-dasharray:none;stroke-opacity:1"/>
<path style="fill:#e36666;fill-opacity:1;stroke:#1a1313;stroke-width:1.56341898;stroke-linecap:butt;stroke-linejoin:miter;marker-start:url(#Arrow2Mstart39Tv);stroke-miterlimit:4;stroke-dasharray:none;stroke-opacity:1" d="M 381.58275,1605.0091 L 381.58275,1572.9961"/>
<path d="M 346.81042,1605.0091 L 346.81042,1572.9961" style="fill:#ff0000;fill-opacity:1;stroke:#1a1313;stroke-width:1.56341898;stroke-linecap:butt;stroke-linejoin:miter;marker-start:url(#Arrow2MstartGdXaz);stroke-miterlimit:4;stroke-dasharray:none;stroke-opacity:1"/>
<path d="M 364.19657,1605.0091 L 364.19657,1572.9961" style="fill:#ff0000;fill-opacity:1;stroke:#1a1313;stroke-width:1.56341898;stroke-linecap:butt;stroke-linejoin:miter;marker-start:url(#Arrow2MstartLywp);stroke-miterlimit:4;stroke-dasharray:none;stroke-opacity:1"/>
<g style="opacity:1;fill:#a0eb89;fill-opacity:1;fill-rule:nonzero;stroke:#000;stroke-width:4;stroke-linecap:round;stroke-linejoin:round;stroke-miterlimit:4;stroke-dasharray:none;stroke-dashoffset:0;stroke-opacity:1" id="g3376">
<path style="fill:#a0eb89;fill-opacity:1;stroke:#000;stroke-width:2.08455849;stroke-miterlimit:4;stroke-dasharray:none;stroke-opacity:1" d="M 353.96705,1463.0384 L 409.25217,1463.0384 L 409.25217,1544.046 L 353.96705,1544.046 L 353.96705,1463.0384 z"/>
<path style="fill:#a0eb89;fill-opacity:1;stroke:#000;stroke-width:2.08455849;stroke-miterlimit:4;stroke-dasharray:none;stroke-opacity:1" d="M 327.77868,1491.6001 L 327.77868,1572.6077 L 353.96705,1544.046 L 353.96705,1463.0384 L 327.77868,1491.6001 z"/>
<path style="fill:#a0eb89;fill-opacity:1;stroke:#000;stroke-width:2.08455849;stroke-miterlimit:4;stroke-dasharray:none;stroke-opacity:1" d="M 327.77868,1572.6077 L 383.0638,1572.6077 L 409.25217,1544.046 L 353.96705,1544.046 L 327.77868,1572.6077 z"/>
<path style="fill:#b1eff0;fill-opacity:1;stroke:#000;stroke-width:2.08455849;stroke-miterlimit:4;stroke-dasharray:none;stroke-opacity:1" d="M 327.77868,1491.6001 L 383.0638,1491.6001 L 409.25217,1463.0384 L 353.96705,1463.0384 L 327.77868,1491.6001 z"/>
<path transform="translate(-5.9527082e-2,-2.653418)" style="fill:#77a8a6;fill-opacity:1;stroke:#000;stroke-width:2.08455849;stroke-miterlimit:4;stroke-dasharray:none;stroke-opacity:1" d="M 383.00427,1494.2535 L 383.00427,1575.2611 L 409.19264,1546.6994 L 409.19264,1465.6918 L 383.00427,1494.2535 z"/>
<path style="fill:#a0eb89;fill-opacity:1;stroke:#000;stroke-width:2.08455849;stroke-miterlimit:4;stroke-dasharray:none;stroke-opacity:1" d="M 327.77868,1468.2688 L 383.0638,1468.2688 L 383.0638,1549.2765 L 327.77868,1549.2765 L 327.77868,1468.2688 z" transform="translate(-3.0715247e-6,23.331244)"/>
</g>
<g transform="matrix(2.6178478,0,0,-2.6178478,-686.84223,3535.6777)" style="fill:none;stroke:#000;stroke-linecap:butt;stroke-linejoin:miter;stroke-miterlimit:10.43299961;stroke-opacity:1;stroke-dasharray:none;stroke-dashoffset:0" id="g3410">
<path d="m 394.41,660.47 0.97,0 c 0.75,0 0.83,-0.16 0.83,-0.45 0,-0.07 0,-0.19 -0.07,-0.49 -0.02,-0.05 -0.03,-0.09 -0.03,-0.11 0,-0.08 0.06,-0.12 0.12,-0.12 0.1,0 0.1,0.04 0.15,0.21 l 0.54,2.17 c 0.03,0.1 0.03,0.12 0.03,0.16 0,0.01 -0.02,0.11 -0.12,0.11 -0.1,0 -0.1,-0.05 -0.15,-0.21 -0.2,-0.78 -0.43,-0.96 -1.28,-0.96 l -0.91,0 0.64,2.53 c 0.09,0.35 0.1,0.39 0.54,0.39 l 1.31,0 c 1.23,0 1.46,-0.33 1.46,-1.1 0,-0.23 0,-0.27 -0.03,-0.54 -0.02,-0.13 -0.02,-0.15 -0.02,-0.17 0,-0.05 0.03,-0.12 0.12,-0.12 0.11,0 0.12,0.06 0.14,0.25 l 0.2,1.72 c 0.03,0.27 -0.02,0.27 -0.27,0.27 l -4.88,0 c -0.2,0 -0.3,0 -0.3,-0.2 0,-0.11 0.09,-0.11 0.28,-0.11 0.37,0 0.64,0 0.64,-0.18 0,-0.04 0,-0.06 -0.05,-0.24 l -1.31,-5.27 c -0.1,-0.39 -0.12,-0.47 -0.91,-0.47 -0.17,0 -0.28,0 -0.28,-0.19 0,-0.12 0.12,-0.12 0.15,-0.12 0.29,0 1.03,0.03 1.32,0.03 0.33,0 1.15,-0.03 1.48,-0.03 0.09,0 0.21,0 0.21,0.19 0,0.08 -0.06,0.1 -0.06,0.11 -0.03,0.01 -0.05,0.01 -0.28,0.01 -0.22,0 -0.27,0 -0.51,0.02 -0.29,0.03 -0.32,0.07 -0.32,0.2 0,0.02 0,0.08 0.04,0.23 l 0.61,2.48 z" style="fill:#000;stroke-width:0"/>
</g>
<path style="fill:#ff0000;fill-opacity:1;stroke:#1a1313;stroke-width:1.56341898;stroke-linecap:butt;stroke-linejoin:miter;marker-start:url(#Arrow2MstarthVX4);stroke-miterlimit:4;stroke-dasharray:none;stroke-opacity:1" d="M 409.73872,1641.233 L 409.73872,1673.246"/>
<path d="M 355.27144,1641.233 L 355.27144,1673.246" style="fill:#e36666;fill-opacity:1;stroke:#1a1313;stroke-width:1.56341898;stroke-linecap:butt;stroke-linejoin:miter;marker-start:url(#Arrow2Mstart39Tv);stroke-miterlimit:4;stroke-dasharray:none;stroke-opacity:1"/>
<path style="fill:#ff0000;fill-opacity:1;stroke:#1a1313;stroke-width:1.56341898;stroke-linecap:butt;stroke-linejoin:miter;marker-start:url(#Arrow2MstartGdXaz);stroke-miterlimit:4;stroke-dasharray:none;stroke-opacity:1" d="M 392.35257,1641.233 L 392.35257,1673.246"/>
<path style="fill:#ff0000;fill-opacity:1;stroke:#1a1313;stroke-width:1.56341898;stroke-linecap:butt;stroke-linejoin:miter;marker-start:url(#Arrow2MstartLywp);stroke-miterlimit:4;stroke-dasharray:none;stroke-opacity:1" d="M 374.96635,1641.233 L 374.96635,1673.246"/>
<path d="M 401.1776,1651.2552 L 401.1776,1683.2682" style="fill:#ff0000;fill-opacity:1;stroke:#1a1313;stroke-width:1.56341898;stroke-linecap:butt;stroke-linejoin:miter;marker-start:url(#Arrow2MstarthVXX);stroke-miterlimit:4;stroke-dasharray:none;stroke-opacity:1"/>
<path style="fill:#e36666;fill-opacity:1;stroke:#1a1313;stroke-width:1.56341898;stroke-linecap:butt;stroke-linejoin:miter;marker-start:url(#Arrow2Mstart39TP);stroke-miterlimit:4;stroke-dasharray:none;stroke-opacity:1" d="M 346.49576,1651.2552 L 346.49576,1683.2682"/>
<path d="M 356.01887,1660.3893 L 356.01887,1692.4024" style="fill:#ff0000;fill-opacity:1;stroke:#1a1313;stroke-width:1.56341898;stroke-linecap:butt;stroke-linejoin:miter;marker-start:url(#Arrow2MstartGdXaU);stroke-miterlimit:4;stroke-dasharray:none;stroke-opacity:1"/>
<path d="M 382.95032,1651.2552 L 382.95032,1683.2682" style="fill:#ff0000;fill-opacity:1;stroke:#1a1313;stroke-width:1.56341898;stroke-linecap:butt;stroke-linejoin:miter;marker-start:url(#Arrow2MstartLyw6);stroke-miterlimit:4;stroke-dasharray:none;stroke-opacity:1"/>
<path style="fill:#ff0000;fill-opacity:1;stroke:#1a1313;stroke-width:1.56341898;stroke-linecap:butt;stroke-linejoin:miter;marker-start:url(#Arrow2MstarthVX8);stroke-miterlimit:4;stroke-dasharray:none;stroke-opacity:1" d="M 392.61647,1660.3893 L 392.61647,1692.4024"/>
<path d="M 337.72009,1660.3893 L 337.72009,1692.4024" style="fill:#e36666;fill-opacity:1;stroke:#1a1313;stroke-width:1.56341898;stroke-linecap:butt;stroke-linejoin:miter;marker-start:url(#Arrow2Mstart39T6);stroke-miterlimit:4;stroke-dasharray:none;stroke-opacity:1"/>
<path style="fill:#ff0000;fill-opacity:1;stroke:#1a1313;stroke-width:1.56341898;stroke-linecap:butt;stroke-linejoin:miter;marker-start:url(#Arrow2MstartGdXao);stroke-miterlimit:4;stroke-dasharray:none;stroke-opacity:1" d="M 364.72304,1651.2552 L 364.72304,1683.2682"/>
<path style="fill:#ff0000;fill-opacity:1;stroke:#1a1313;stroke-width:1.56341898;stroke-linecap:butt;stroke-linejoin:miter;marker-start:url(#Arrow2MstartLywH);stroke-miterlimit:4;stroke-dasharray:none;stroke-opacity:1" d="M 374.31764,1660.3893 L 374.31764,1692.4024"/>
<path d="M 384.05535,1669.4193 L 384.05535,1701.4323" style="fill:#ff0000;fill-opacity:1;stroke:#1a1313;stroke-width:1.56341898;stroke-linecap:butt;stroke-linejoin:miter;marker-start:url(#Arrow2MstarthVXZ);stroke-miterlimit:4;stroke-dasharray:none;stroke-opacity:1"/>
<path style="fill:#e36666;fill-opacity:1;stroke:#1a1313;stroke-width:1.56341898;stroke-linecap:butt;stroke-linejoin:miter;marker-start:url(#Arrow2Mstart39Tn);stroke-miterlimit:4;stroke-dasharray:none;stroke-opacity:1" d="M 328.94446,1669.4193 L 328.94446,1701.4323"/>
<path d="M 365.68501,1669.4193 L 365.68501,1701.4323" style="fill:#ff0000;fill-opacity:1;stroke:#1a1313;stroke-width:1.56341898;stroke-linecap:butt;stroke-linejoin:miter;marker-start:url(#Arrow2MstartGdXam);stroke-miterlimit:4;stroke-dasharray:none;stroke-opacity:1"/>
<path d="M 347.31479,1669.4193 L 347.31479,1701.4323" style="fill:#ff0000;fill-opacity:1;stroke:#1a1313;stroke-width:1.56341898;stroke-linecap:butt;stroke-linejoin:miter;marker-start:url(#Arrow2MstartLywQ);stroke-miterlimit:4;stroke-dasharray:none;stroke-opacity:1"/>
<g style="opacity:1;fill:#a0eb88;fill-opacity:0.90196078;fill-rule:nonzero;stroke:#000;stroke-width:4;stroke-linecap:round;stroke-linejoin:round;marker:none;marker-start:none;marker-mid:none;marker-end:none;stroke-miterlimit:4;stroke-dasharray:none;stroke-dashoffset:0;stroke-opacity:1;visibility:visible;display:inline;overflow:visible;enable-background:accumulate">
<path d="M 158.1325,1463.7577 L 213.41762,1463.7577 L 213.41762,1544.7653 L 158.1325,1544.7653 L 158.1325,1463.7577 z" style="fill:#a0eb88;fill-opacity:0.90196078;fill-rule:nonzero;stroke:#000;stroke-width:2.08455849;stroke-linecap:round;stroke-linejoin:round;marker:none;marker-start:none;marker-mid:none;marker-end:none;stroke-miterlimit:4;stroke-dasharray:none;stroke-dashoffset:0;stroke-opacity:1;visibility:visible;display:inline;overflow:visible;enable-background:accumulate"/>
<path d="M 131.94413,1492.3194 L 131.94413,1573.327 L 158.1325,1544.7653 L 158.1325,1463.7577 L 131.94413,1492.3194 z" style="fill:#a0eb88;fill-opacity:0.90196078;fill-rule:nonzero;stroke:#000;stroke-width:2.08455849;stroke-linecap:round;stroke-linejoin:round;marker:none;marker-start:none;marker-mid:none;marker-end:none;stroke-miterlimit:4;stroke-dasharray:none;stroke-dashoffset:0;stroke-opacity:1;visibility:visible;display:inline;overflow:visible;enable-background:accumulate"/>
<path d="M 131.94413,1573.327 L 187.22925,1573.327 L 213.41762,1544.7653 L 158.1325,1544.7653 L 131.94413,1573.327 z" style="fill:#a0eb88;fill-opacity:0.90196078;fill-rule:nonzero;stroke:#000;stroke-width:2.08455849;stroke-linecap:round;stroke-linejoin:round;marker:none;marker-start:none;marker-mid:none;marker-end:none;stroke-miterlimit:4;stroke-dasharray:none;stroke-dashoffset:0;stroke-opacity:1;visibility:visible;display:inline;overflow:visible;enable-background:accumulate"/>
<path d="M 131.94413,1492.3194 L 187.22925,1492.3194 L 213.41762,1463.7577 L 158.1325,1463.7577 L 131.94413,1492.3194 z" style="fill:#b1eff0;fill-opacity:1;fill-rule:nonzero;stroke:#000;stroke-width:2.08455849;stroke-linecap:round;stroke-linejoin:round;marker:none;marker-start:none;marker-mid:none;marker-end:none;stroke-miterlimit:4;stroke-dasharray:none;stroke-dashoffset:0;stroke-opacity:1;visibility:visible;display:inline;overflow:visible;enable-background:accumulate"/>
<path d="M 187.16972,1494.9728 L 187.16972,1575.9804 L 213.35809,1547.4187 L 213.35809,1466.4111 L 187.16972,1494.9728 z" style="fill:#77a8a6;fill-opacity:1;fill-rule:nonzero;stroke:#000;stroke-width:2.08455849;stroke-linecap:round;stroke-linejoin:round;marker:none;marker-start:none;marker-mid:none;marker-end:none;stroke-miterlimit:4;stroke-dasharray:none;stroke-dashoffset:0;stroke-opacity:1;visibility:visible;display:inline;overflow:visible;enable-background:accumulate" transform="translate(-5.9527082e-2,-2.653418)"/>
<path transform="translate(-3.0715247e-6,23.331244)" d="M 131.94413,1468.9881 L 187.22925,1468.9881 L 187.22925,1549.9958 L 131.94413,1549.9958 L 131.94413,1468.9881 z" style="fill:#a0eb89;fill-opacity:1;fill-rule:nonzero;stroke:#000;stroke-width:2.08455849;stroke-linecap:round;stroke-linejoin:round;marker:none;marker-start:none;marker-mid:none;marker-end:none;stroke-miterlimit:4;stroke-dasharray:none;stroke-dashoffset:0;stroke-opacity:1;visibility:visible;display:inline;overflow:visible;enable-background:accumulate"/>
</g>
<g style="fill:none;stroke:#000;stroke-linecap:butt;stroke-linejoin:miter;stroke-miterlimit:10.43299961;stroke-opacity:1;stroke-dasharray:none;stroke-dashoffset:0" transform="matrix(2.6178478,0,0,-2.6178478,-884.32218,3534.4851)">
<path style="fill:#000;stroke-width:0" d="m 394.41,660.47 0.97,0 c 0.75,0 0.83,-0.16 0.83,-0.45 0,-0.07 0,-0.19 -0.07,-0.49 -0.02,-0.05 -0.03,-0.09 -0.03,-0.11 0,-0.08 0.06,-0.12 0.12,-0.12 0.1,0 0.1,0.04 0.15,0.21 l 0.54,2.17 c 0.03,0.1 0.03,0.12 0.03,0.16 0,0.01 -0.02,0.11 -0.12,0.11 -0.1,0 -0.1,-0.05 -0.15,-0.21 -0.2,-0.78 -0.43,-0.96 -1.28,-0.96 l -0.91,0 0.64,2.53 c 0.09,0.35 0.1,0.39 0.54,0.39 l 1.31,0 c 1.23,0 1.46,-0.33 1.46,-1.1 0,-0.23 0,-0.27 -0.03,-0.54 -0.02,-0.13 -0.02,-0.15 -0.02,-0.17 0,-0.05 0.03,-0.12 0.12,-0.12 0.11,0 0.12,0.06 0.14,0.25 l 0.2,1.72 c 0.03,0.27 -0.02,0.27 -0.27,0.27 l -4.88,0 c -0.2,0 -0.3,0 -0.3,-0.2 0,-0.11 0.09,-0.11 0.28,-0.11 0.37,0 0.64,0 0.64,-0.18 0,-0.04 0,-0.06 -0.05,-0.24 l -1.31,-5.27 c -0.1,-0.39 -0.12,-0.47 -0.91,-0.47 -0.17,0 -0.28,0 -0.28,-0.19 0,-0.12 0.12,-0.12 0.15,-0.12 0.29,0 1.03,0.03 1.32,0.03 0.33,0 1.15,-0.03 1.48,-0.03 0.09,0 0.21,0 0.21,0.19 0,0.08 -0.06,0.1 -0.06,0.11 -0.03,0.01 -0.05,0.01 -0.28,0.01 -0.22,0 -0.27,0 -0.51,0.02 -0.29,0.03 -0.32,0.07 -0.32,0.2 0,0.02 0,0.08 0.04,0.23 l 0.61,2.48 z"/>
</g>
<g style="opacity:1;fill:#a0eb88;fill-opacity:0.90196078;fill-rule:nonzero;stroke:#000;stroke-width:4;stroke-linecap:round;stroke-linejoin:round;marker:none;marker-start:none;marker-mid:none;marker-end:none;stroke-miterlimit:4;stroke-dasharray:none;stroke-dashoffset:0;stroke-opacity:1;visibility:visible;display:inline;overflow:visible;enable-background:accumulate" id="g2691">
<path style="fill:#a0eb88;fill-opacity:0.90196078;fill-rule:nonzero;stroke:#000;stroke-width:2.08455849;stroke-linecap:round;stroke-linejoin:round;marker:none;marker-start:none;marker-mid:none;marker-end:none;stroke-miterlimit:4;stroke-dasharray:none;stroke-dashoffset:0;stroke-opacity:1;visibility:visible;display:inline;overflow:visible;enable-background:accumulate" d="M 156.70364,1673.1729 L 211.98876,1673.1729 L 211.98876,1754.1806 L 156.70364,1754.1806 L 156.70364,1673.1729 z"/>
<path style="fill:#a0eb88;fill-opacity:0.90196078;fill-rule:nonzero;stroke:#000;stroke-width:2.08455849;stroke-linecap:round;stroke-linejoin:round;marker:none;marker-start:none;marker-mid:none;marker-end:none;stroke-miterlimit:4;stroke-dasharray:none;stroke-dashoffset:0;stroke-opacity:1;visibility:visible;display:inline;overflow:visible;enable-background:accumulate" d="M 130.51527,1701.7346 L 130.51527,1782.7423 L 156.70364,1754.1806 L 156.70364,1673.1729 L 130.51527,1701.7346 z"/>
<path style="fill:#a0eb88;fill-opacity:0.90196078;fill-rule:nonzero;stroke:#000;stroke-width:2.08455849;stroke-linecap:round;stroke-linejoin:round;marker:none;marker-start:none;marker-mid:none;marker-end:none;stroke-miterlimit:4;stroke-dasharray:none;stroke-dashoffset:0;stroke-opacity:1;visibility:visible;display:inline;overflow:visible;enable-background:accumulate" d="M 130.51527,1782.7423 L 185.80039,1782.7423 L 211.98876,1754.1806 L 156.70364,1754.1806 L 130.51527,1782.7423 z"/>
<path style="fill:#b1eff0;fill-opacity:1;fill-rule:nonzero;stroke:#000;stroke-width:2.08455849;stroke-linecap:round;stroke-linejoin:round;marker:none;marker-start:none;marker-mid:none;marker-end:none;stroke-miterlimit:4;stroke-dasharray:none;stroke-dashoffset:0;stroke-opacity:1;visibility:visible;display:inline;overflow:visible;enable-background:accumulate" d="M 130.51527,1701.7346 L 185.80039,1701.7346 L 211.98876,1673.1729 L 156.70364,1673.1729 L 130.51527,1701.7346 z"/>
<path transform="translate(-5.9527082e-2,-2.653418)" style="fill:#77a8a6;fill-opacity:1;fill-rule:nonzero;stroke:#000;stroke-width:2.08455849;stroke-linecap:round;stroke-linejoin:round;marker:none;marker-start:none;marker-mid:none;marker-end:none;stroke-miterlimit:4;stroke-dasharray:none;stroke-dashoffset:0;stroke-opacity:1;visibility:visible;display:inline;overflow:visible;enable-background:accumulate" d="M 185.74086,1704.3881 L 185.74086,1785.3957 L 211.92923,1756.834 L 211.92923,1675.8263 L 185.74086,1704.3881 z"/>
<path style="opacity:1;fill:#a0eb89;fill-opacity:1;fill-rule:nonzero;stroke:#000;stroke-width:2.08455849;stroke-linecap:round;stroke-linejoin:round;marker:none;marker-start:none;marker-mid:none;marker-end:none;stroke-miterlimit:4;stroke-dasharray:none;stroke-dashoffset:0;stroke-opacity:1;visibility:visible;display:inline;overflow:visible;enable-background:accumulate" d="M 130.51527,1698.5954 L 185.80039,1698.5954 L 185.80039,1779.603 L 130.51527,1779.603 L 130.51527,1698.5954 z" transform="translate(-3.2082852e-6,3.1392801)"/>
</g>
<path style="fill:none;stroke:#000;stroke-width:2.08455849;stroke-linecap:butt;stroke-linejoin:miter;marker-start:url(#Arrow2Mstart);stroke-miterlimit:4;stroke-dasharray:none;stroke-opacity:1" d="M 171.99832,1425.2237 L 171.99832,1478.5623"/>
<path d="M 171.99832,1632.4507 L 171.99832,1685.7891" style="fill:none;stroke:#000;stroke-width:2.08455849;stroke-linecap:butt;stroke-linejoin:miter;marker-start:url(#Arrow2Mstart);stroke-miterlimit:4;stroke-dasharray:none;stroke-opacity:1"/>
<g style="fill:none;fill-opacity:1;stroke:#000;stroke-linecap:butt;stroke-linejoin:miter;stroke-miterlimit:10.43299961;stroke-dasharray:none;stroke-dashoffset:0;stroke-opacity:1" transform="matrix(2.6178478,0,0,-2.6178478,-884.95285,3163.2001)">
<path style="fill:#000;stroke-width:0" d="M 394.41,660.47 L 395.38,660.47 C 396.13,660.47 396.21,660.31 396.21,660.02 C 396.21,659.95 396.21,659.83 396.14,659.53 C 396.12,659.48 396.11,659.44 396.11,659.42 C 396.11,659.34 396.17,659.3 396.23,659.3 C 396.33,659.3 396.33,659.34 396.38,659.51 L 396.92,661.68 C 396.95,661.78 396.95,661.8 396.95,661.84 C 396.95,661.85 396.93,661.95 396.83,661.95 C 396.73,661.95 396.73,661.9 396.68,661.74 C 396.48,660.96 396.25,660.78 395.4,660.78 L 394.49,660.78 L 395.13,663.31 C 395.22,663.66 395.23,663.7 395.67,663.7 L 396.98,663.7 C 398.21,663.7 398.44,663.37 398.44,662.6 C 398.44,662.37 398.44,662.33 398.41,662.06 C 398.39,661.93 398.39,661.91 398.39,661.89 C 398.39,661.84 398.42,661.77 398.51,661.77 C 398.62,661.77 398.63,661.83 398.65,662.02 L 398.85,663.74 C 398.88,664.01 398.83,664.01 398.58,664.01 L 393.7,664.01 C 393.5,664.01 393.4,664.01 393.4,663.81 C 393.4,663.7 393.49,663.7 393.68,663.7 C 394.05,663.7 394.32,663.7 394.32,663.52 C 394.32,663.48 394.32,663.46 394.27,663.28 L 392.96,658.01 C 392.86,657.62 392.84,657.54 392.05,657.54 C 391.88,657.54 391.77,657.54 391.77,657.35 C 391.77,657.23 391.89,657.23 391.92,657.23 C 392.21,657.23 392.95,657.26 393.24,657.26 C 393.57,657.26 394.39,657.23 394.72,657.23 C 394.81,657.23 394.93,657.23 394.93,657.42 C 394.93,657.5 394.87,657.52 394.87,657.53 C 394.84,657.54 394.82,657.54 394.59,657.54 C 394.37,657.54 394.32,657.54 394.08,657.56 C 393.79,657.59 393.76,657.63 393.76,657.76 C 393.76,657.78 393.76,657.84 393.8,657.99 L 394.41,660.47 z"/>
</g>
<rect style="opacity:1;fill:#ff9595;fill-opacity:0.62790695;fill-rule:nonzero;stroke:#c23d3d;stroke-width:1.82501769;stroke-linecap:round;stroke-linejoin:round;stroke-miterlimit:4;stroke-dasharray:none;stroke-dashoffset:4.86700016;stroke-opacity:1" id="rect4095" width="54.555485" height="38.615654" x="1872.6942" y="2233.6021" transform="matrix(1,0,-0.6792945,0.7338657,0,0)" ry="0"/>
<path d="M -35.856309,1771.9489 L -35.856309,1718.6104" style="fill:none;stroke:#000;stroke-width:2.08455849;stroke-linecap:butt;stroke-linejoin:miter;marker-start:url(#Arrow2Mstart);stroke-miterlimit:4;stroke-dasharray:none;stroke-opacity:1"/>
<g style="fill:#a0eb88;fill-opacity:0.90196078;fill-rule:nonzero;stroke:#000;stroke-width:4;stroke-linecap:round;stroke-linejoin:round;marker:none;marker-start:none;marker-mid:none;marker-end:none;stroke-miterlimit:4;stroke-dasharray:none;stroke-dashoffset:0;stroke-opacity:1;visibility:visible;display:inline;overflow:visible;enable-background:accumulate" id="g9462">
<path style="fill:#a0eb88;fill-opacity:0.90196078;fill-rule:nonzero;stroke:#000;stroke-width:2.08455849;stroke-linecap:round;stroke-linejoin:round;marker:none;marker-start:none;marker-mid:none;marker-end:none;stroke-miterlimit:4;stroke-dasharray:none;stroke-dashoffset:0;stroke-opacity:1;visibility:visible;display:inline;overflow:visible;enable-background:accumulate" d="M -49.857274,1624.7308 L 5.4278461,1624.7308 L 5.4278461,1705.7384 L -49.857274,1705.7384 L -49.857274,1624.7308 z"/>
<path style="fill:#a0eb88;fill-opacity:0.90196078;fill-rule:nonzero;stroke:#000;stroke-width:2.08455849;stroke-linecap:round;stroke-linejoin:round;marker:none;marker-start:none;marker-mid:none;marker-end:none;stroke-miterlimit:4;stroke-dasharray:none;stroke-dashoffset:0;stroke-opacity:1;visibility:visible;display:inline;overflow:visible;enable-background:accumulate" d="M -76.045638,1653.2925 L -76.045638,1734.3002 L -49.857274,1705.7384 L -49.857274,1624.7308 L -76.045638,1653.2925 z"/>
<path style="fill:#a0eb88;fill-opacity:0.90196078;fill-rule:nonzero;stroke:#000;stroke-width:2.08455849;stroke-linecap:round;stroke-linejoin:round;marker:none;marker-start:none;marker-mid:none;marker-end:none;stroke-miterlimit:4;stroke-dasharray:none;stroke-dashoffset:0;stroke-opacity:1;visibility:visible;display:inline;overflow:visible;enable-background:accumulate" d="M -76.045638,1734.3002 L -20.760519,1734.3002 L 5.4278461,1705.7384 L -49.857274,1705.7384 L -76.045638,1734.3002 z"/>
<path style="fill:#b1eff0;fill-opacity:1;fill-rule:nonzero;stroke:#000;stroke-width:2.08455849;stroke-linecap:round;stroke-linejoin:round;marker:none;marker-start:none;marker-mid:none;marker-end:none;stroke-miterlimit:4;stroke-dasharray:none;stroke-dashoffset:0;stroke-opacity:1;visibility:visible;display:inline;overflow:visible;enable-background:accumulate" d="M -76.045638,1653.2925 L -20.760519,1653.2925 L 5.4278461,1624.7308 L -49.857274,1624.7308 L -76.045638,1653.2925 z"/>
<path transform="translate(-5.9527082e-2,-2.653418)" style="fill:#77a8a6;fill-opacity:0.78431373;fill-rule:nonzero;stroke:#000;stroke-width:2.08455849;stroke-linecap:round;stroke-linejoin:round;marker:none;marker-start:none;marker-mid:none;marker-end:none;stroke-miterlimit:4;stroke-dasharray:none;stroke-dashoffset:0;stroke-opacity:1;visibility:visible;display:inline;overflow:visible;enable-background:accumulate" d="M -20.820046,1655.9459 L -20.820046,1736.9536 L 5.368319,1708.3919 L 5.368319,1627.3842 L -20.820046,1655.9459 z"/>
<path style="fill:#a0eb89;fill-opacity:0.70588235;fill-rule:nonzero;stroke:#000;stroke-width:2.08455849;stroke-linecap:round;stroke-linejoin:round;marker:none;marker-start:none;marker-mid:none;marker-end:none;stroke-miterlimit:4;stroke-dasharray:none;stroke-dashoffset:0;stroke-opacity:1;visibility:visible;display:inline;overflow:visible;enable-background:accumulate" d="M -76.045642,1629.9613 L -20.760522,1629.9613 L -20.760522,1710.9689 L -76.045642,1710.9689 L -76.045642,1629.9613 z" transform="translate(-3.0715247e-6,23.331244)"/>
</g>
<g transform="matrix(2.6178478,0,0,-2.6178478,-1086.4896,3243.9915)" style="fill:none;fill-opacity:1;stroke:#000;stroke-linecap:butt;stroke-linejoin:miter;stroke-miterlimit:10.43299961;stroke-dasharray:none;stroke-dashoffset:0;stroke-opacity:1" id="g9476">
<path d="M 394.41,660.47 L 395.38,660.47 C 396.13,660.47 396.21,660.31 396.21,660.02 C 396.21,659.95 396.21,659.83 396.14,659.53 C 396.12,659.48 396.11,659.44 396.11,659.42 C 396.11,659.34 396.17,659.3 396.23,659.3 C 396.33,659.3 396.33,659.34 396.38,659.51 L 396.92,661.68 C 396.95,661.78 396.95,661.8 396.95,661.84 C 396.95,661.85 396.93,661.95 396.83,661.95 C 396.73,661.95 396.73,661.9 396.68,661.74 C 396.48,660.96 396.25,660.78 395.4,660.78 L 394.49,660.78 L 395.13,663.31 C 395.22,663.66 395.23,663.7 395.67,663.7 L 396.98,663.7 C 398.21,663.7 398.44,663.37 398.44,662.6 C 398.44,662.37 398.44,662.33 398.41,662.06 C 398.39,661.93 398.39,661.91 398.39,661.89 C 398.39,661.84 398.42,661.77 398.51,661.77 C 398.62,661.77 398.63,661.83 398.65,662.02 L 398.85,663.74 C 398.88,664.01 398.83,664.01 398.58,664.01 L 393.7,664.01 C 393.5,664.01 393.4,664.01 393.4,663.81 C 393.4,663.7 393.49,663.7 393.68,663.7 C 394.05,663.7 394.32,663.7 394.32,663.52 C 394.32,663.48 394.32,663.46 394.27,663.28 L 392.96,658.01 C 392.86,657.62 392.84,657.54 392.05,657.54 C 391.88,657.54 391.77,657.54 391.77,657.35 C 391.77,657.23 391.89,657.23 391.92,657.23 C 392.21,657.23 392.95,657.26 393.24,657.26 C 393.57,657.26 394.39,657.23 394.72,657.23 C 394.81,657.23 394.93,657.23 394.93,657.42 C 394.93,657.5 394.87,657.52 394.87,657.53 C 394.84,657.54 394.82,657.54 394.59,657.54 C 394.37,657.54 394.32,657.54 394.08,657.56 C 393.79,657.59 393.76,657.63 393.76,657.76 C 393.76,657.78 393.76,657.84 393.8,657.99 L 394.41,660.47 z" style="fill:#000;stroke-width:0"/>
</g>
<g style="fill:#a0eb88;fill-opacity:0.90196078;fill-rule:nonzero;stroke:#000;stroke-width:4;stroke-linecap:round;stroke-linejoin:round;marker:none;marker-start:none;marker-mid:none;marker-end:none;stroke-miterlimit:4;stroke-dasharray:none;stroke-dashoffset:0;stroke-opacity:1;visibility:visible;display:inline;overflow:visible;enable-background:accumulate">
<path d="M -49.857274,1543.2414 L 5.4278461,1543.2414 L 5.4278461,1624.2491 L -49.857274,1624.2491 L -49.857274,1543.2414 z" style="fill:#a0eb88;fill-opacity:0.90196078;fill-rule:nonzero;stroke:#000;stroke-width:2.08455849;stroke-linecap:round;stroke-linejoin:round;marker:none;marker-start:none;marker-mid:none;marker-end:none;stroke-miterlimit:4;stroke-dasharray:none;stroke-dashoffset:0;stroke-opacity:1;visibility:visible;display:inline;overflow:visible;enable-background:accumulate"/>
<path d="M -76.045638,1571.8031 L -76.045638,1652.8108 L -49.857274,1624.2491 L -49.857274,1543.2414 L -76.045638,1571.8031 z" style="fill:#a0eb88;fill-opacity:0.90196078;fill-rule:nonzero;stroke:#000;stroke-width:2.08455849;stroke-linecap:round;stroke-linejoin:round;marker:none;marker-start:none;marker-mid:none;marker-end:none;stroke-miterlimit:4;stroke-dasharray:none;stroke-dashoffset:0;stroke-opacity:1;visibility:visible;display:inline;overflow:visible;enable-background:accumulate"/>
<path d="M -76.045638,1652.8108 L -20.760519,1652.8108 L 5.4278461,1624.2491 L -49.857274,1624.2491 L -76.045638,1652.8108 z" style="fill:#535353;fill-opacity:1;fill-rule:nonzero;stroke:#000;stroke-width:2.08455849;stroke-linecap:round;stroke-linejoin:round;marker:none;marker-start:none;marker-mid:none;marker-end:none;stroke-miterlimit:4;stroke-dasharray:none;stroke-dashoffset:0;stroke-opacity:1;visibility:visible;display:inline;overflow:visible;enable-background:accumulate"/>
<path d="M -76.045638,1571.8031 L -20.760519,1571.8031 L 5.4278461,1543.2414 L -49.857274,1543.2414 L -76.045638,1571.8031 z" style="fill:#b1eff0;fill-opacity:1;fill-rule:nonzero;stroke:#000;stroke-width:2.08455849;stroke-linecap:round;stroke-linejoin:round;marker:none;marker-start:none;marker-mid:none;marker-end:none;stroke-miterlimit:4;stroke-dasharray:none;stroke-dashoffset:0;stroke-opacity:1;visibility:visible;display:inline;overflow:visible;enable-background:accumulate"/>
<path d="M -20.820046,1574.4565 L -20.820046,1655.4642 L 5.368319,1626.9025 L 5.368319,1545.8948 L -20.820046,1574.4565 z" style="fill:#77a8a6;fill-opacity:0.78431373;fill-rule:nonzero;stroke:#000;stroke-width:2.08455849;stroke-linecap:round;stroke-linejoin:round;marker:none;marker-start:none;marker-mid:none;marker-end:none;stroke-miterlimit:4;stroke-dasharray:none;stroke-dashoffset:0;stroke-opacity:1;visibility:visible;display:inline;overflow:visible;enable-background:accumulate" transform="translate(-5.9527082e-2,-2.653418)"/>
<path transform="translate(-0.1942444,1.00262)" d="M -76.239883,1570.8005 L -20.954763,1570.8005 L -20.954763,1651.8082 L -76.239883,1651.8082 L -76.239883,1570.8005 z" style="opacity:1;fill:#a0eb89;fill-opacity:0.70588235;fill-rule:nonzero;stroke:#000;stroke-width:2.08455849;stroke-linecap:round;stroke-linejoin:round;marker:none;marker-start:none;marker-mid:none;marker-end:none;stroke-miterlimit:4;stroke-dasharray:none;stroke-dashoffset:0;stroke-opacity:1;visibility:visible;display:inline;overflow:visible;enable-background:accumulate"/>
</g>
<path style="fill:none;stroke:#000;stroke-width:2.08455849;stroke-linecap:butt;stroke-linejoin:miter;marker-start:url(#Arrow2Mstart);stroke-miterlimit:4;stroke-dasharray:none;stroke-opacity:1" d="M -35.816247,1505.052 L -35.816247,1558.3906"/>
<g transform="matrix(2.6178478,0,0,-2.6178478,-1089.9675,3487.0663)" style="fill:none;fill-opacity:1;stroke:#000;stroke-linecap:butt;stroke-linejoin:miter;stroke-miterlimit:10.43299961;stroke-dasharray:none;stroke-dashoffset:0;stroke-opacity:1" id="g9496">
<path d="M 394.41,660.47 L 395.38,660.47 C 396.13,660.47 396.21,660.31 396.21,660.02 C 396.21,659.95 396.21,659.83 396.14,659.53 C 396.12,659.48 396.11,659.44 396.11,659.42 C 396.11,659.34 396.17,659.3 396.23,659.3 C 396.33,659.3 396.33,659.34 396.38,659.51 L 396.92,661.68 C 396.95,661.78 396.95,661.8 396.95,661.84 C 396.95,661.85 396.93,661.95 396.83,661.95 C 396.73,661.95 396.73,661.9 396.68,661.74 C 396.48,660.96 396.25,660.78 395.4,660.78 L 394.49,660.78 L 395.13,663.31 C 395.22,663.66 395.23,663.7 395.67,663.7 L 396.98,663.7 C 398.21,663.7 398.44,663.37 398.44,662.6 C 398.44,662.37 398.44,662.33 398.41,662.06 C 398.39,661.93 398.39,661.91 398.39,661.89 C 398.39,661.84 398.42,661.77 398.51,661.77 C 398.62,661.77 398.63,661.83 398.65,662.02 L 398.85,663.74 C 398.88,664.01 398.83,664.01 398.58,664.01 L 393.7,664.01 C 393.5,664.01 393.4,664.01 393.4,663.81 C 393.4,663.7 393.49,663.7 393.68,663.7 C 394.05,663.7 394.32,663.7 394.32,663.52 C 394.32,663.48 394.32,663.46 394.27,663.28 L 392.96,658.01 C 392.86,657.62 392.84,657.54 392.05,657.54 C 391.88,657.54 391.77,657.54 391.77,657.35 C 391.77,657.23 391.89,657.23 391.92,657.23 C 392.21,657.23 392.95,657.26 393.24,657.26 C 393.57,657.26 394.39,657.23 394.72,657.23 C 394.81,657.23 394.93,657.23 394.93,657.42 C 394.93,657.5 394.87,657.52 394.87,657.53 C 394.84,657.54 394.82,657.54 394.59,657.54 C 394.37,657.54 394.32,657.54 394.08,657.56 C 393.79,657.59 393.76,657.63 393.76,657.76 C 393.76,657.78 393.76,657.84 393.8,657.99 L 394.41,660.47 z" style="fill:#000;stroke-width:0"/>
</g>
<g transform="matrix(2.6178478,0,0,-2.6178478,-1078.2983,3367.7718)" style="fill:none;fill-opacity:1;stroke:#000;stroke-linecap:butt;stroke-linejoin:miter;stroke-miterlimit:10.43299961;stroke-dasharray:none;stroke-dashoffset:0;stroke-opacity:1" id="g3235">
<path d="M 393.34,658.38 L 393.3,658.32 L 393.26,658.26 L 393.22,658.2 L 393.19,658.15 L 393.15,658.1 L 393.11,658.06 L 393.08,658.01 L 393.04,657.97 L 393,657.93 L 392.96,657.89 L 392.93,657.86 L 392.89,657.83 L 392.85,657.8 L 392.81,657.77 L 392.78,657.74 L 392.74,657.72 L 392.7,657.7 L 392.66,657.68 L 392.62,657.66 L 392.59,657.64 L 392.55,657.63 L 392.51,657.61 L 392.47,657.6 L 392.43,657.59 L 392.39,657.58 L 392.35,657.57 L 392.31,657.56 L 392.27,657.56 L 392.19,657.55 L 392.11,657.54 C 391.99,657.53 391.9,657.53 391.9,657.34 C 391.9,657.28 391.95,657.23 392.03,657.23 C 392.3,657.23 392.61,657.26 392.89,657.26 C 393.22,657.26 393.57,657.23 393.88,657.23 C 393.94,657.23 394.07,657.23 394.07,657.42 C 394.07,657.53 393.98,657.54 393.91,657.54 C 393.68,657.56 393.45,657.64 393.45,657.89 C 393.45,658.01 393.51,658.12 393.58,658.26 C 393.65,658.38 393.67,658.38 394.34,659.53 L 396.84,659.53 L 396.81,659.84 L 394.53,659.84 L 396.49,663.13 L 396.81,659.84 L 396.84,659.53 C 396.86,659.33 397,657.97 397,657.87 C 397,657.57 396.48,657.54 396.29,657.54 C 396.14,657.54 396.05,657.54 396.05,657.34 C 396.05,657.23 396.17,657.23 396.18,657.23 C 396.59,657.23 397.02,657.26 397.43,657.26 C 397.68,657.26 398.31,657.23 398.56,657.23 C 398.62,657.23 398.74,657.23 398.74,657.43 C 398.74,657.54 398.64,657.54 398.51,657.54 C 397.89,657.54 397.89,657.61 397.86,657.9 L 397.25,664.13 C 397.23,664.33 397.23,664.37 397.06,664.37 C 396.9,664.37 396.86,664.3 396.8,664.2 L 393.34,658.38 z" style="fill:#000;stroke-width:0"/>
</g>
<g transform="matrix(2.6178478,0,0,-2.6178478,-922.23027,3395.4437)" style="fill:none;fill-opacity:1;stroke:#000;stroke-linecap:butt;stroke-linejoin:miter;stroke-miterlimit:10.43299961;stroke-dasharray:none;stroke-dashoffset:0;stroke-opacity:1" id="g8569">
<path d="M 393.34,658.38 L 393.3,658.32 L 393.26,658.26 L 393.22,658.2 L 393.19,658.15 L 393.15,658.1 L 393.11,658.06 L 393.08,658.01 L 393.04,657.97 L 393,657.93 L 392.96,657.89 L 392.93,657.86 L 392.89,657.83 L 392.85,657.8 L 392.81,657.77 L 392.78,657.74 L 392.74,657.72 L 392.7,657.7 L 392.66,657.68 L 392.62,657.66 L 392.59,657.64 L 392.55,657.63 L 392.51,657.61 L 392.47,657.6 L 392.43,657.59 L 392.39,657.58 L 392.35,657.57 L 392.31,657.56 L 392.27,657.56 L 392.19,657.55 L 392.11,657.54 C 391.99,657.53 391.9,657.53 391.9,657.34 C 391.9,657.28 391.95,657.23 392.03,657.23 C 392.3,657.23 392.61,657.26 392.89,657.26 C 393.22,657.26 393.57,657.23 393.88,657.23 C 393.94,657.23 394.07,657.23 394.07,657.42 C 394.07,657.53 393.98,657.54 393.91,657.54 C 393.68,657.56 393.45,657.64 393.45,657.89 C 393.45,658.01 393.51,658.12 393.58,658.26 C 393.65,658.38 393.67,658.38 394.34,659.53 L 396.84,659.53 L 396.81,659.84 L 394.53,659.84 L 396.49,663.13 L 396.81,659.84 L 396.84,659.53 C 396.86,659.33 397,657.97 397,657.87 C 397,657.57 396.48,657.54 396.29,657.54 C 396.14,657.54 396.05,657.54 396.05,657.34 C 396.05,657.23 396.17,657.23 396.18,657.23 C 396.59,657.23 397.02,657.26 397.43,657.26 C 397.68,657.26 398.31,657.23 398.56,657.23 C 398.62,657.23 398.74,657.23 398.74,657.43 C 398.74,657.54 398.64,657.54 398.51,657.54 C 397.89,657.54 397.89,657.61 397.86,657.9 L 397.25,664.13 C 397.23,664.33 397.23,664.37 397.06,664.37 C 396.9,664.37 396.86,664.3 396.8,664.2 L 393.34,658.38 z" style="fill:#000;stroke-width:0"/>
</g>
<path d="M 146.82139,1692.1355 L 122.08844,1677.7279" style="fill:none;stroke:#000;stroke-width:1.56341898;stroke-linecap:round;stroke-linejoin:miter;marker-start:none;stroke-miterlimit:4;stroke-dasharray:none;stroke-opacity:1"/>
<path style="fill:none;stroke:#000;stroke-width:2.08455849;stroke-linecap:butt;stroke-linejoin:miter;marker-start:url(#Arrow2Mstart);stroke-miterlimit:4;stroke-dasharray:none;stroke-opacity:1" d="M 368.6915,1423.8434 L 368.6915,1477.1819"/>
<g style="fill:none;stroke:#000;stroke-linecap:butt;stroke-linejoin:miter;stroke-miterlimit:10.43299961;stroke-opacity:1;stroke-dasharray:none;stroke-dashoffset:0" transform="matrix(2.6178478,0,0,-2.6178478,-889.93301,3328.8151)">
<path style="fill:#000;stroke-width:0" d="m 394.41,660.47 0.97,0 c 0.75,0 0.83,-0.16 0.83,-0.45 0,-0.07 0,-0.19 -0.07,-0.49 -0.02,-0.05 -0.03,-0.09 -0.03,-0.11 0,-0.08 0.06,-0.12 0.12,-0.12 0.1,0 0.1,0.04 0.15,0.21 l 0.54,2.17 c 0.03,0.1 0.03,0.12 0.03,0.16 0,0.01 -0.02,0.11 -0.12,0.11 -0.1,0 -0.1,-0.05 -0.15,-0.21 -0.2,-0.78 -0.43,-0.96 -1.28,-0.96 l -0.91,0 0.64,2.53 c 0.09,0.35 0.1,0.39 0.54,0.39 l 1.31,0 c 1.23,0 1.46,-0.33 1.46,-1.1 0,-0.23 0,-0.27 -0.03,-0.54 -0.02,-0.13 -0.02,-0.15 -0.02,-0.17 0,-0.05 0.03,-0.12 0.12,-0.12 0.11,0 0.12,0.06 0.14,0.25 l 0.2,1.72 c 0.03,0.27 -0.02,0.27 -0.27,0.27 l -4.88,0 c -0.2,0 -0.3,0 -0.3,-0.2 0,-0.11 0.09,-0.11 0.28,-0.11 0.37,0 0.64,0 0.64,-0.18 0,-0.04 0,-0.06 -0.05,-0.24 l -1.31,-5.27 c -0.1,-0.39 -0.12,-0.47 -0.91,-0.47 -0.17,0 -0.28,0 -0.28,-0.19 0,-0.12 0.12,-0.12 0.15,-0.12 0.29,0 1.03,0.03 1.32,0.03 0.33,0 1.15,-0.03 1.48,-0.03 0.09,0 0.21,0 0.21,0.19 0,0.08 -0.06,0.1 -0.06,0.11 -0.03,0.01 -0.05,0.01 -0.28,0.01 -0.22,0 -0.27,0 -0.51,0.02 -0.29,0.03 -0.32,0.07 -0.32,0.2 0,0.02 0,0.08 0.04,0.23 l 0.61,2.48 z"/>
</g>
<g style="fill:none;stroke:#000;stroke-linecap:butt;stroke-linejoin:miter;stroke-miterlimit:10.43299961;stroke-opacity:1;stroke-dasharray:none;stroke-dashoffset:0" transform="matrix(2.6178478,0,0,-2.6178478,-888.51441,3369.9545)">
<path style="fill:#000;stroke-width:0" d="m 394.41,660.47 0.97,0 c 0.75,0 0.83,-0.16 0.83,-0.45 0,-0.07 0,-0.19 -0.07,-0.49 -0.02,-0.05 -0.03,-0.09 -0.03,-0.11 0,-0.08 0.06,-0.12 0.12,-0.12 0.1,0 0.1,0.04 0.15,0.21 l 0.54,2.17 c 0.03,0.1 0.03,0.12 0.03,0.16 0,0.01 -0.02,0.11 -0.12,0.11 -0.1,0 -0.1,-0.05 -0.15,-0.21 -0.2,-0.78 -0.43,-0.96 -1.28,-0.96 l -0.91,0 0.64,2.53 c 0.09,0.35 0.1,0.39 0.54,0.39 l 1.31,0 c 1.23,0 1.46,-0.33 1.46,-1.1 0,-0.23 0,-0.27 -0.03,-0.54 -0.02,-0.13 -0.02,-0.15 -0.02,-0.17 0,-0.05 0.03,-0.12 0.12,-0.12 0.11,0 0.12,0.06 0.14,0.25 l 0.2,1.72 c 0.03,0.27 -0.02,0.27 -0.27,0.27 l -4.88,0 c -0.2,0 -0.3,0 -0.3,-0.2 0,-0.11 0.09,-0.11 0.28,-0.11 0.37,0 0.64,0 0.64,-0.18 0,-0.04 0,-0.06 -0.05,-0.24 l -1.31,-5.27 c -0.1,-0.39 -0.12,-0.47 -0.91,-0.47 -0.17,0 -0.28,0 -0.28,-0.19 0,-0.12 0.12,-0.12 0.15,-0.12 0.29,0 1.03,0.03 1.32,0.03 0.33,0 1.15,-0.03 1.48,-0.03 0.09,0 0.21,0 0.21,0.19 0,0.08 -0.06,0.1 -0.06,0.11 -0.03,0.01 -0.05,0.01 -0.28,0.01 -0.22,0 -0.27,0 -0.51,0.02 -0.29,0.03 -0.32,0.07 -0.32,0.2 0,0.02 0,0.08 0.04,0.23 l 0.61,2.48 z"/>
</g>
<g style="fill:none;stroke:#000;stroke-linecap:butt;stroke-linejoin:miter;stroke-miterlimit:10.43299961;stroke-opacity:1;stroke-dasharray:none;stroke-dashoffset:0;display:inline" transform="matrix(3.8315249,0,0,-3.8315249,-1273.8125,4147.2027)">
<path style="fill:#000;stroke-width:0" d="m 414.31311,649.56162 0.02,0 0.01,0 0.02,0 0.01,0 0.02,0 0.02,0 0.01,0 0.02,0 0.02,0.01 0.02,0 0.02,0 0.02,0.01 0.03,0 0.02,0.01 0.02,0 0.02,0.01 0.02,0.01 0.01,0.01 0.02,0.01 0.02,0.01 0.02,0.01 0.01,0.02 0.01,0.01 0.01,0 0.01,0.01 0,0.01 0.01,0.01 0.01,0.01 0,0.01 0.01,0.01 0,0.01 0.01,0.01 0,0.01 0.01,0.02 0,0.01 0,0.01 0,0.01 0.01,0.02 0,0.01 0,0.02 0,0.01 0,0.02 c 0,0.24 -0.21,0.24 -0.39,0.24 l -2.27,0 c -1.5,0 -2.61,-1.65 -2.61,-2.83 0,-0.88 0.59,-1.58 1.49,-1.58 l 0.02,0.22 c -0.49,0 -0.89,0.36 -0.89,1.08 0,0.3 0.12,1.11 0.47,1.7 0.42,0.69 1.01,0.83 1.35,0.83 0.84,0 0.92,-0.66 0.92,-0.97 0,-0.47 -0.2,-1.28 -0.54,-1.79 -0.39,-0.59 -0.93,-0.85 -1.31,-0.85 l 0,0 -0.02,-0.22 c 1.18,0 2.51,1.21 2.51,2.74 0,0.17 0,0.65 -0.31,1.09 l 1.09,0 z"/>
</g>
</g>
</svg>
 